<?xml version="1.0" encoding="UTF-8" standalone="no"?>
<!-- Created with Inkscape (http://www.inkscape.org/) -->

<svg
   xmlns:dc="http://purl.org/dc/elements/1.1/"
   xmlns:cc="http://creativecommons.org/ns#"
   xmlns:rdf="http://www.w3.org/1999/02/22-rdf-syntax-ns#"
   xmlns:svg="http://www.w3.org/2000/svg"
   xmlns="http://www.w3.org/2000/svg"
   xmlns:sodipodi="http://sodipodi.sourceforge.net/DTD/sodipodi-0.dtd"
   xmlns:inkscape="http://www.inkscape.org/namespaces/inkscape"
   width="83.832878"
   height="50.098892"
   id="svg4414"
   version="1.1"
   inkscape:version="0.48.5 r10040"
   sodipodi:docname="fleur.svg">
  <defs
     id="defs4416" />
  <sodipodi:namedview
     id="base"
     pagecolor="#ffffff"
     bordercolor="#666666"
     borderopacity="1.0"
     inkscape:pageopacity="0.0"
     inkscape:pageshadow="2"
     inkscape:zoom="7.9195959"
     inkscape:cx="23.150246"
     inkscape:cy="-0.076698109"
     inkscape:document-units="px"
     inkscape:current-layer="g15579"
     showgrid="false"
     fit-margin-top="0"
     fit-margin-left="0"
     fit-margin-right="0"
     fit-margin-bottom="0"
     inkscape:window-width="1856"
     inkscape:window-height="1049"
     inkscape:window-x="64"
     inkscape:window-y="0"
     inkscape:window-maximized="1" />
  <metadata
     id="metadata4419">
    <rdf:RDF>
      <cc:Work
         rdf:about="">
        <dc:format>image/svg+xml</dc:format>
        <dc:type
           rdf:resource="http://purl.org/dc/dcmitype/StillImage" />
        <dc:title></dc:title>
      </cc:Work>
    </rdf:RDF>
  </metadata>
  <g
     inkscape:label="Calque 1"
     inkscape:groupmode="layer"
     id="layer1"
     transform="translate(-107.66558,-681.58367)">
    <g
       transform="matrix(-1.5497583,-0.27712233,-0.27692444,1.5508658,825.72356,833.33339)"
       id="g15579">
      <path
         transform="matrix(-0.76077728,-0.13594237,-0.14044487,0.78597466,439.32706,-19.378994)"
         d="m 29.041885,17.584606 a 11.364216,10.038391 0 1 1 -22.7284313,0 11.364216,10.038391 0 1 1 22.7284313,0 z"
         sodipodi:ry="10.038391"
         sodipodi:rx="11.364216"
         sodipodi:cy="17.584606"
         sodipodi:cx="17.67767"
         id="path5032"
         style="color:#000000;fill:#ffffff;fill-opacity:1;fill-rule:evenodd;stroke:none;stroke-width:3;marker:none;visibility:visible;display:inline;overflow:visible;enable-background:accumulate"
         sodipodi:type="arc" />
      <path
         style="fill:#119933;fill-opacity:1;fill-rule:evenodd;stroke:none"
         d="m 444.91307,14.461137 c 0.87203,-1.9042 1.12276,-3.369415 0.75738,-4.8309413 -0.49987,-1.9994731 -0.0308,-3.8515624 0.71428,-5.7142855 0.70035,-1.7508778 0.78402,-3.35374289 1.60714,-5 0.83373,-1.6674582 2.05911,-3.4149934 2.5,-5.1785714 0.41055,-1.6422031 -1.20409,0.6683813 -1.60714,1.0714286 -0.764,0.7639999 -1.32248,1.7521002 -1.78571,2.6785714 -0.56652,1.1330409 -1.13096,2.02382717 -1.42857,3.21428571 -0.0595,0.2380953 -0.11905,0.47619049 -0.17858,0.71428569 -0.27169,1.0867781 -0.86937,1.917325 -1.25,2.6785715 -0.49121,0.9824306 -0.81952,2.2066569 -1.07142,3.2142857 -0.31516,1.2606212 -1.2e-4,3.0354916 -0.89286,1.2500002 -0.11905,-0.238095 -0.2381,-0.476191 -0.35714,-0.714286 -0.93204,-1.8640801 -1.98411,-3.7169005 -3.21429,-5.3571428 -0.80291,-1.0705499 -2.75958,-2.80836254 -3.92857,-3.39285714 -1.62439,-0.81219636 -3.25929,-1.54035646 -4.82143,-2.32142866 -2.05986,-1.0299311 0.78641,1.450557 1.42857,1.9642858 0.90096,0.72076407 1.38549,1.31161036 2.14286,2.3214286 0.82557,1.1007682 1.61607,1.6428786 1.96428,3.0357143 0.29855,1.1941832 1.16761,2.1704363 1.42858,3.2142857 0.23872,0.9548852 0.72336,1.8220172 0.89285,2.5000003 0.22479,0.8991643 0.74968,1.9140243 1.44404,3.5087173"
         id="path15581"
         sodipodi:nodetypes="cssssssssssssssssssssc"
         inkscape:connector-curvature="0" />
      <path
         sodipodi:type="arc"
         style="color:#000000;fill:#ffffff;fill-opacity:1;fill-rule:evenodd;stroke:none;stroke-width:3;stroke-linecap:butt;stroke-linejoin:miter;stroke-miterlimit:4;stroke-opacity:1;stroke-dasharray:none;stroke-dashoffset:0;marker:none;visibility:visible;display:inline;overflow:visible;enable-background:accumulate"
         id="path5030"
         sodipodi:cx="17.67767"
         sodipodi:cy="17.584606"
         sodipodi:rx="11.364216"
         sodipodi:ry="10.038391"
         d="m 29.041885,17.584606 a 11.364216,10.038391 0 1 1 -22.7284313,0 11.364216,10.038391 0 1 1 22.7284313,0 z"
         transform="matrix(-0.62529639,-0.11173345,-0.11165367,0.62484986,465.94248,-14.589692)" />
      <g
         id="g15583"
         transform="matrix(0.642169,0,0,0.642169,157.97992,13.613983)">
        <path
           transform="translate(66.071429,-1.25)"
           sodipodi:type="arc"
           style="color:#000000;fill:#4169e1;fill-opacity:1;fill-rule:evenodd;stroke:none;stroke-width:1px;marker:none;visibility:visible;display:inline;overflow:visible;enable-background:accumulate"
           id="path15585"
           sodipodi:cx="347.85715"
           sodipodi:cy="-31.976946"
           sodipodi:rx="7.1428571"
           sodipodi:ry="7.1428571"
           d="m 355,-31.976946 c 0,3.944891 -3.19796,7.142857 -7.14285,7.142857 -3.94489,0 -7.14286,-3.197966 -7.14286,-7.142857 0,-3.944891 3.19797,-7.142857 7.14286,-7.142857 3.94489,0 7.14285,3.197966 7.14285,7.142857 z" />
        <path
           transform="translate(66.071429,-1.25)"
           sodipodi:type="spiral"
           style="fill:#ff0000;fill-rule:nonzero;stroke:#8b0000;stroke-width:0.98879558px;stroke-linecap:butt;stroke-linejoin:miter;stroke-opacity:1"
           id="path15587"
           sodipodi:cx="358.75"
           sodipodi:cy="-40.459091"
           sodipodi:expansion="1.726836"
           sodipodi:revolution="2.478406"
           sodipodi:radius="8.3700294"
           sodipodi:argument="-13.413485"
           sodipodi:t0="0.021303693"
           d="m 358.75946,-40.464449 c 0.10297,-0.03476 0.11843,0.142169 0.0999,0.198408 -0.0899,0.272603 -0.46356,0.245597 -0.65522,0.116143 -0.45876,-0.309868 -0.37003,-0.98023 -0.043,-1.348881 0.60048,-0.676969 1.66658,-0.500928 2.24933,0.09918 0.92892,0.956601 0.64024,2.507798 -0.30164,3.339368 -1.37472,1.21371 -3.49366,0.788606 -4.60708,-0.558943 -1.53014,-1.851904 -0.9462,-4.616489 0.86733,-6.043411 2.38572,-1.877124 5.87022,-1.113059 7.64117,1.223978 2.25369,2.97409 1.2891,7.249859 -1.62665,9.394382 -2.39377,1.760603 -5.66077,1.903053 -8.27641,0.549415" />
        <path
           d="m 358.75946,-40.464449 c 0.10297,-0.03476 0.11843,0.142169 0.0999,0.198408 -0.0899,0.272603 -0.46356,0.245597 -0.65522,0.116143 -0.45876,-0.309868 -0.37003,-0.98023 -0.043,-1.348881 0.60048,-0.676969 1.66658,-0.500928 2.24933,0.09918 0.92892,0.956601 0.64024,2.507798 -0.30164,3.339368 -1.37472,1.21371 -3.49366,0.788606 -4.60708,-0.558943 -1.53014,-1.851904 -0.9462,-4.616489 0.86733,-6.043411 2.38572,-1.877124 5.87022,-1.113059 7.64117,1.223978 2.25369,2.97409 1.2891,7.249859 -1.62665,9.394382 -2.39377,1.760603 -5.66077,1.903053 -8.27641,0.549415"
           sodipodi:t0="0.021303693"
           sodipodi:argument="-13.413485"
           sodipodi:radius="8.3700294"
           sodipodi:revolution="2.478406"
           sodipodi:expansion="1.726836"
           sodipodi:cy="-40.459091"
           sodipodi:cx="358.75"
           id="path15589"
           style="fill:#ff0000;fill-rule:nonzero;stroke:#8b0000;stroke-width:0.98879558px;stroke-linecap:butt;stroke-linejoin:miter;stroke-opacity:1"
           sodipodi:type="spiral"
           inkscape:transform-center-x="-12.431037"
           inkscape:transform-center-y="3.0036654"
           transform="matrix(0.7071256,0.707088,-0.707088,0.7071256,145.27255,-256.64009)" />
        <path
           transform="matrix(-0.00668284,0.9999777,-0.9999777,-0.00668284,384.20509,-381.43917)"
           inkscape:transform-center-y="11.815638"
           inkscape:transform-center-x="-6.9928903"
           sodipodi:type="spiral"
           style="fill:#ff0000;fill-rule:nonzero;stroke:#8b0000;stroke-width:0.98879558px;stroke-linecap:butt;stroke-linejoin:miter;stroke-opacity:1"
           id="path15591"
           sodipodi:cx="358.75"
           sodipodi:cy="-40.459091"
           sodipodi:expansion="1.726836"
           sodipodi:revolution="2.478406"
           sodipodi:radius="8.3700294"
           sodipodi:argument="-13.413485"
           sodipodi:t0="0.021303693"
           d="m 358.75946,-40.464449 c 0.10297,-0.03476 0.11843,0.142169 0.0999,0.198408 -0.0899,0.272603 -0.46356,0.245597 -0.65522,0.116143 -0.45876,-0.309868 -0.37003,-0.98023 -0.043,-1.348881 0.60048,-0.676969 1.66658,-0.500928 2.24933,0.09918 0.92892,0.956601 0.64024,2.507798 -0.30164,3.339368 -1.37472,1.21371 -3.49366,0.788606 -4.60708,-0.558943 -1.53014,-1.851904 -0.9462,-4.616489 0.86733,-6.043411 2.38572,-1.877124 5.87022,-1.113059 7.64117,1.223978 2.25369,2.97409 1.2891,7.249859 -1.62665,9.394382 -2.39377,1.760603 -5.66077,1.903053 -8.27641,0.549415" />
        <path
           d="m 358.75946,-40.464449 c 0.10297,-0.03476 0.11843,0.142169 0.0999,0.198408 -0.0899,0.272603 -0.46356,0.245597 -0.65522,0.116143 -0.45876,-0.309868 -0.37003,-0.98023 -0.043,-1.348881 0.60048,-0.676969 1.66658,-0.500928 2.24933,0.09918 0.92892,0.956601 0.64024,2.507798 -0.30164,3.339368 -1.37472,1.21371 -3.49366,0.788606 -4.60708,-0.558943 -1.53014,-1.851904 -0.9462,-4.616489 0.86733,-6.043411 2.38572,-1.877124 5.87022,-1.113059 7.64117,1.223978 2.25369,2.97409 1.2891,7.249859 -1.62665,9.394382 -2.39377,1.760603 -5.66077,1.903053 -8.27641,0.549415"
           sodipodi:t0="0.021303693"
           sodipodi:argument="-13.413485"
           sodipodi:radius="8.3700294"
           sodipodi:revolution="2.478406"
           sodipodi:expansion="1.726836"
           sodipodi:cy="-40.459091"
           sodipodi:cx="358.75"
           id="path15593"
           style="fill:#ff0000;fill-rule:nonzero;stroke:#8b0000;stroke-width:0.98879558px;stroke-linecap:butt;stroke-linejoin:miter;stroke-opacity:1"
           sodipodi:type="spiral"
           inkscape:transform-center-x="2.9621661"
           inkscape:transform-center-y="12.440198"
           transform="matrix(-0.7049145,0.7092923,-0.7092923,-0.7049145,636.44388,-302.71542)" />
        <path
           transform="matrix(-0.9999613,-0.00879869,0.00879869,-0.9999613,762.13081,-62.362199)"
           inkscape:transform-center-y="6.970012"
           inkscape:transform-center-x="11.82502"
           sodipodi:type="spiral"
           style="fill:#ff0000;fill-rule:nonzero;stroke:#8b0000;stroke-width:0.98879558px;stroke-linecap:butt;stroke-linejoin:miter;stroke-opacity:1"
           id="path15595"
           sodipodi:cx="358.75"
           sodipodi:cy="-40.459091"
           sodipodi:expansion="1.726836"
           sodipodi:revolution="2.478406"
           sodipodi:radius="8.3700294"
           sodipodi:argument="-13.413485"
           sodipodi:t0="0.021303693"
           d="m 358.75946,-40.464449 c 0.10297,-0.03476 0.11843,0.142169 0.0999,0.198408 -0.0899,0.272603 -0.46356,0.245597 -0.65522,0.116143 -0.45876,-0.309868 -0.37003,-0.98023 -0.043,-1.348881 0.60048,-0.676969 1.66658,-0.500928 2.24933,0.09918 0.92892,0.956601 0.64024,2.507798 -0.30164,3.339368 -1.37472,1.21371 -3.49366,0.788606 -4.60708,-0.558943 -1.53014,-1.851904 -0.9462,-4.616489 0.86733,-6.043411 2.38572,-1.877124 5.87022,-1.113059 7.64117,1.223978 2.25369,2.97409 1.2891,7.249859 -1.62665,9.394382 -2.39377,1.760603 -5.66077,1.903053 -8.27641,0.549415" />
        <path
           d="m 358.75946,-40.464449 c 0.10297,-0.03476 0.11843,0.142169 0.0999,0.198408 -0.0899,0.272603 -0.46356,0.245597 -0.65522,0.116143 -0.45876,-0.309868 -0.37003,-0.98023 -0.043,-1.348881 0.60048,-0.676969 1.66658,-0.500928 2.24933,0.09918 0.92892,0.956601 0.64024,2.507798 -0.30164,3.339368 -1.37472,1.21371 -3.49366,0.788606 -4.60708,-0.558943 -1.53014,-1.851904 -0.9462,-4.616489 0.86733,-6.043411 2.38572,-1.877124 5.87022,-1.113059 7.64117,1.223978 2.25369,2.97409 1.2891,7.249859 -1.62665,9.394382 -2.39377,1.760603 -5.66077,1.903053 -8.27641,0.549415"
           sodipodi:t0="0.021303693"
           sodipodi:argument="-13.413485"
           sodipodi:radius="8.3700294"
           sodipodi:revolution="2.478406"
           sodipodi:expansion="1.726836"
           sodipodi:cy="-40.459091"
           sodipodi:cx="358.75"
           id="path15597"
           style="fill:#ff0000;fill-rule:nonzero;stroke:#8b0000;stroke-width:0.98879558px;stroke-linecap:butt;stroke-linejoin:miter;stroke-opacity:1"
           sodipodi:type="spiral"
           inkscape:transform-center-x="12.328274"
           inkscape:transform-center-y="-3.4429835"
           transform="matrix(-0.6837113,-0.7297526,0.7297526,-0.6837113,675.24234,198.60183)" />
        <path
           transform="matrix(0.02652053,-0.9996483,0.9996483,0.02652053,436.81625,315.28662)"
           inkscape:transform-center-y="-11.902215"
           inkscape:transform-center-x="6.7767614"
           sodipodi:type="spiral"
           style="fill:#ff0000;fill-rule:nonzero;stroke:#8b0000;stroke-width:0.98879558px;stroke-linecap:butt;stroke-linejoin:miter;stroke-opacity:1"
           id="path15599"
           sodipodi:cx="358.75"
           sodipodi:cy="-40.459091"
           sodipodi:expansion="1.726836"
           sodipodi:revolution="2.478406"
           sodipodi:radius="8.3700294"
           sodipodi:argument="-13.413485"
           sodipodi:t0="0.021303693"
           d="m 358.75946,-40.464449 c 0.10297,-0.03476 0.11843,0.142169 0.0999,0.198408 -0.0899,0.272603 -0.46356,0.245597 -0.65522,0.116143 -0.45876,-0.309868 -0.37003,-0.98023 -0.043,-1.348881 0.60048,-0.676969 1.66658,-0.500928 2.24933,0.09918 0.92892,0.956601 0.64024,2.507798 -0.30164,3.339368 -1.37472,1.21371 -3.49366,0.788606 -4.60708,-0.558943 -1.53014,-1.851904 -0.9462,-4.616489 0.86733,-6.043411 2.38572,-1.877124 5.87022,-1.113059 7.64117,1.223978 2.25369,2.97409 1.2891,7.249859 -1.62665,9.394382 -2.39377,1.760603 -5.66077,1.903053 -8.27641,0.549415" />
        <path
           d="m 358.75946,-40.464449 c 0.10297,-0.03476 0.11843,0.142169 0.0999,0.198408 -0.0899,0.272603 -0.46356,0.245597 -0.65522,0.116143 -0.45876,-0.309868 -0.37003,-0.98023 -0.043,-1.348881 0.60048,-0.676969 1.66658,-0.500928 2.24933,0.09918 0.92892,0.956601 0.64024,2.507798 -0.30164,3.339368 -1.37472,1.21371 -3.49366,0.788606 -4.60708,-0.558943 -1.53014,-1.851904 -0.9462,-4.616489 0.86733,-6.043411 2.38572,-1.877124 5.87022,-1.113059 7.64117,1.223978 2.25369,2.97409 1.2891,7.249859 -1.62665,9.394382 -2.39377,1.760603 -5.66077,1.903053 -8.27641,0.549415"
           sodipodi:t0="0.021303693"
           sodipodi:argument="-13.413485"
           sodipodi:radius="8.3700294"
           sodipodi:revolution="2.478406"
           sodipodi:expansion="1.726836"
           sodipodi:cy="-40.459091"
           sodipodi:cx="358.75"
           id="path15601"
           style="fill:#ff0000;fill-rule:nonzero;stroke:#8b0000;stroke-width:0.98879558px;stroke-linecap:butt;stroke-linejoin:miter;stroke-opacity:1"
           sodipodi:type="spiral"
           inkscape:transform-center-x="-3.1710967"
           inkscape:transform-center-y="-12.393145"
           transform="matrix(0.7158039,-0.6983014,0.6983014,0.7158039,187.34845,232.56664)" />
      </g>
      <g
         transform="matrix(0.54512,0,0,0.54512,227.44837,12.523494)"
         id="g15603">
        <path
           d="m 355,-31.976946 c 0,3.944891 -3.19796,7.142857 -7.14285,7.142857 -3.94489,0 -7.14286,-3.197966 -7.14286,-7.142857 0,-3.944891 3.19797,-7.142857 7.14286,-7.142857 3.94489,0 7.14285,3.197966 7.14285,7.142857 z"
           sodipodi:ry="7.1428571"
           sodipodi:rx="7.1428571"
           sodipodi:cy="-31.976946"
           sodipodi:cx="347.85715"
           id="path15605"
           style="color:#000000;fill:#0000cd;fill-opacity:1;fill-rule:evenodd;stroke:none;stroke-width:1px;marker:none;visibility:visible;display:inline;overflow:visible;enable-background:accumulate"
           sodipodi:type="arc"
           transform="translate(66.071429,-1.25)" />
        <path
           d="m 358.75946,-40.464449 c 0.10297,-0.03476 0.11843,0.142169 0.0999,0.198408 -0.0899,0.272603 -0.46356,0.245597 -0.65522,0.116143 -0.45876,-0.309868 -0.37003,-0.98023 -0.043,-1.348881 0.60048,-0.676969 1.66658,-0.500928 2.24933,0.09918 0.92892,0.956601 0.64024,2.507798 -0.30164,3.339368 -1.37472,1.21371 -3.49366,0.788606 -4.60708,-0.558943 -1.53014,-1.851904 -0.9462,-4.616489 0.86733,-6.043411 2.38572,-1.877124 5.87022,-1.113059 7.64117,1.223978 2.25369,2.97409 1.2891,7.249859 -1.62665,9.394382 -2.39377,1.760603 -5.66077,1.903053 -8.27641,0.549415"
           sodipodi:t0="0.021303693"
           sodipodi:argument="-13.413485"
           sodipodi:radius="8.3700294"
           sodipodi:revolution="2.478406"
           sodipodi:expansion="1.726836"
           sodipodi:cy="-40.459091"
           sodipodi:cx="358.75"
           id="path15607"
           style="fill:#ffa500;fill-rule:nonzero;stroke:#a0522d;stroke-width:1.16483307px;stroke-linecap:butt;stroke-linejoin:miter;stroke-opacity:1"
           sodipodi:type="spiral"
           transform="translate(66.071429,-1.25)" />
        <path
           transform="matrix(0.7071256,0.707088,-0.707088,0.7071256,145.27255,-256.64009)"
           inkscape:transform-center-y="3.0036654"
           inkscape:transform-center-x="-12.431037"
           sodipodi:type="spiral"
           style="fill:#ffa500;fill-rule:nonzero;stroke:#a0522d;stroke-width:1.16483307px;stroke-linecap:butt;stroke-linejoin:miter;stroke-opacity:1"
           id="path15609"
           sodipodi:cx="358.75"
           sodipodi:cy="-40.459091"
           sodipodi:expansion="1.726836"
           sodipodi:revolution="2.478406"
           sodipodi:radius="8.3700294"
           sodipodi:argument="-13.413485"
           sodipodi:t0="0.021303693"
           d="m 358.75946,-40.464449 c 0.10297,-0.03476 0.11843,0.142169 0.0999,0.198408 -0.0899,0.272603 -0.46356,0.245597 -0.65522,0.116143 -0.45876,-0.309868 -0.37003,-0.98023 -0.043,-1.348881 0.60048,-0.676969 1.66658,-0.500928 2.24933,0.09918 0.92892,0.956601 0.64024,2.507798 -0.30164,3.339368 -1.37472,1.21371 -3.49366,0.788606 -4.60708,-0.558943 -1.53014,-1.851904 -0.9462,-4.616489 0.86733,-6.043411 2.38572,-1.877124 5.87022,-1.113059 7.64117,1.223978 2.25369,2.97409 1.2891,7.249859 -1.62665,9.394382 -2.39377,1.760603 -5.66077,1.903053 -8.27641,0.549415" />
        <path
           d="m 358.75946,-40.464449 c 0.10297,-0.03476 0.11843,0.142169 0.0999,0.198408 -0.0899,0.272603 -0.46356,0.245597 -0.65522,0.116143 -0.45876,-0.309868 -0.37003,-0.98023 -0.043,-1.348881 0.60048,-0.676969 1.66658,-0.500928 2.24933,0.09918 0.92892,0.956601 0.64024,2.507798 -0.30164,3.339368 -1.37472,1.21371 -3.49366,0.788606 -4.60708,-0.558943 -1.53014,-1.851904 -0.9462,-4.616489 0.86733,-6.043411 2.38572,-1.877124 5.87022,-1.113059 7.64117,1.223978 2.25369,2.97409 1.2891,7.249859 -1.62665,9.394382 -2.39377,1.760603 -5.66077,1.903053 -8.27641,0.549415"
           sodipodi:t0="0.021303693"
           sodipodi:argument="-13.413485"
           sodipodi:radius="8.3700294"
           sodipodi:revolution="2.478406"
           sodipodi:expansion="1.726836"
           sodipodi:cy="-40.459091"
           sodipodi:cx="358.75"
           id="path15611"
           style="fill:#ffa500;fill-rule:nonzero;stroke:#a0522d;stroke-width:1.16483307px;stroke-linecap:butt;stroke-linejoin:miter;stroke-opacity:1"
           sodipodi:type="spiral"
           inkscape:transform-center-x="-6.9928903"
           inkscape:transform-center-y="11.815638"
           transform="matrix(-0.00668284,0.9999777,-0.9999777,-0.00668284,384.20509,-381.43917)" />
        <path
           transform="matrix(-0.7049145,0.7092923,-0.7092923,-0.7049145,636.44388,-302.71542)"
           inkscape:transform-center-y="12.440198"
           inkscape:transform-center-x="2.9621661"
           sodipodi:type="spiral"
           style="fill:#ffa500;fill-rule:nonzero;stroke:#a0522d;stroke-width:1.16483307px;stroke-linecap:butt;stroke-linejoin:miter;stroke-opacity:1"
           id="path15613"
           sodipodi:cx="358.75"
           sodipodi:cy="-40.459091"
           sodipodi:expansion="1.726836"
           sodipodi:revolution="2.478406"
           sodipodi:radius="8.3700294"
           sodipodi:argument="-13.413485"
           sodipodi:t0="0.021303693"
           d="m 358.75946,-40.464449 c 0.10297,-0.03476 0.11843,0.142169 0.0999,0.198408 -0.0899,0.272603 -0.46356,0.245597 -0.65522,0.116143 -0.45876,-0.309868 -0.37003,-0.98023 -0.043,-1.348881 0.60048,-0.676969 1.66658,-0.500928 2.24933,0.09918 0.92892,0.956601 0.64024,2.507798 -0.30164,3.339368 -1.37472,1.21371 -3.49366,0.788606 -4.60708,-0.558943 -1.53014,-1.851904 -0.9462,-4.616489 0.86733,-6.043411 2.38572,-1.877124 5.87022,-1.113059 7.64117,1.223978 2.25369,2.97409 1.2891,7.249859 -1.62665,9.394382 -2.39377,1.760603 -5.66077,1.903053 -8.27641,0.549415" />
        <path
           d="m 358.75946,-40.464449 c 0.10297,-0.03476 0.11843,0.142169 0.0999,0.198408 -0.0899,0.272603 -0.46356,0.245597 -0.65522,0.116143 -0.45876,-0.309868 -0.37003,-0.98023 -0.043,-1.348881 0.60048,-0.676969 1.66658,-0.500928 2.24933,0.09918 0.92892,0.956601 0.64024,2.507798 -0.30164,3.339368 -1.37472,1.21371 -3.49366,0.788606 -4.60708,-0.558943 -1.53014,-1.851904 -0.9462,-4.616489 0.86733,-6.043411 2.38572,-1.877124 5.87022,-1.113059 7.64117,1.223978 2.25369,2.97409 1.2891,7.249859 -1.62665,9.394382 -2.39377,1.760603 -5.66077,1.903053 -8.27641,0.549415"
           sodipodi:t0="0.021303693"
           sodipodi:argument="-13.413485"
           sodipodi:radius="8.3700294"
           sodipodi:revolution="2.478406"
           sodipodi:expansion="1.726836"
           sodipodi:cy="-40.459091"
           sodipodi:cx="358.75"
           id="path15615"
           style="fill:#ffa500;fill-rule:nonzero;stroke:#a0522d;stroke-width:1.16483307px;stroke-linecap:butt;stroke-linejoin:miter;stroke-opacity:1"
           sodipodi:type="spiral"
           inkscape:transform-center-x="11.82502"
           inkscape:transform-center-y="6.970012"
           transform="matrix(-0.9999613,-0.00879869,0.00879869,-0.9999613,762.13081,-62.362199)" />
        <path
           transform="matrix(-0.6837113,-0.7297526,0.7297526,-0.6837113,675.24234,198.60183)"
           inkscape:transform-center-y="-3.4429835"
           inkscape:transform-center-x="12.328274"
           sodipodi:type="spiral"
           style="fill:#ffa500;fill-rule:nonzero;stroke:#a0522d;stroke-width:1.16483307px;stroke-linecap:butt;stroke-linejoin:miter;stroke-opacity:1"
           id="path15617"
           sodipodi:cx="358.75"
           sodipodi:cy="-40.459091"
           sodipodi:expansion="1.726836"
           sodipodi:revolution="2.478406"
           sodipodi:radius="8.3700294"
           sodipodi:argument="-13.413485"
           sodipodi:t0="0.021303693"
           d="m 358.75946,-40.464449 c 0.10297,-0.03476 0.11843,0.142169 0.0999,0.198408 -0.0899,0.272603 -0.46356,0.245597 -0.65522,0.116143 -0.45876,-0.309868 -0.37003,-0.98023 -0.043,-1.348881 0.60048,-0.676969 1.66658,-0.500928 2.24933,0.09918 0.92892,0.956601 0.64024,2.507798 -0.30164,3.339368 -1.37472,1.21371 -3.49366,0.788606 -4.60708,-0.558943 -1.53014,-1.851904 -0.9462,-4.616489 0.86733,-6.043411 2.38572,-1.877124 5.87022,-1.113059 7.64117,1.223978 2.25369,2.97409 1.2891,7.249859 -1.62665,9.394382 -2.39377,1.760603 -5.66077,1.903053 -8.27641,0.549415" />
        <path
           d="m 358.75946,-40.464449 c 0.10297,-0.03476 0.11843,0.142169 0.0999,0.198408 -0.0899,0.272603 -0.46356,0.245597 -0.65522,0.116143 -0.45876,-0.309868 -0.37003,-0.98023 -0.043,-1.348881 0.60048,-0.676969 1.66658,-0.500928 2.24933,0.09918 0.92892,0.956601 0.64024,2.507798 -0.30164,3.339368 -1.37472,1.21371 -3.49366,0.788606 -4.60708,-0.558943 -1.53014,-1.851904 -0.9462,-4.616489 0.86733,-6.043411 2.38572,-1.877124 5.87022,-1.113059 7.64117,1.223978 2.25369,2.97409 1.2891,7.249859 -1.62665,9.394382 -2.39377,1.760603 -5.66077,1.903053 -8.27641,0.549415"
           sodipodi:t0="0.021303693"
           sodipodi:argument="-13.413485"
           sodipodi:radius="8.3700294"
           sodipodi:revolution="2.478406"
           sodipodi:expansion="1.726836"
           sodipodi:cy="-40.459091"
           sodipodi:cx="358.75"
           id="path15619"
           style="fill:#ffa500;fill-rule:nonzero;stroke:#a0522d;stroke-width:1.16483307px;stroke-linecap:butt;stroke-linejoin:miter;stroke-opacity:1"
           sodipodi:type="spiral"
           inkscape:transform-center-x="6.7767614"
           inkscape:transform-center-y="-11.902215"
           transform="matrix(0.02652053,-0.9996483,0.9996483,0.02652053,436.81625,315.28662)" />
        <path
           transform="matrix(0.7158039,-0.6983014,0.6983014,0.7158039,187.34845,232.56664)"
           inkscape:transform-center-y="-12.393145"
           inkscape:transform-center-x="-3.1710967"
           sodipodi:type="spiral"
           style="fill:#ffa500;fill-rule:nonzero;stroke:#a0522d;stroke-width:1.16483307px;stroke-linecap:butt;stroke-linejoin:miter;stroke-opacity:1"
           id="path15621"
           sodipodi:cx="358.75"
           sodipodi:cy="-40.459091"
           sodipodi:expansion="1.726836"
           sodipodi:revolution="2.478406"
           sodipodi:radius="8.3700294"
           sodipodi:argument="-13.413485"
           sodipodi:t0="0.021303693"
           d="m 358.75946,-40.464449 c 0.10297,-0.03476 0.11843,0.142169 0.0999,0.198408 -0.0899,0.272603 -0.46356,0.245597 -0.65522,0.116143 -0.45876,-0.309868 -0.37003,-0.98023 -0.043,-1.348881 0.60048,-0.676969 1.66658,-0.500928 2.24933,0.09918 0.92892,0.956601 0.64024,2.507798 -0.30164,3.339368 -1.37472,1.21371 -3.49366,0.788606 -4.60708,-0.558943 -1.53014,-1.851904 -0.9462,-4.616489 0.86733,-6.043411 2.38572,-1.877124 5.87022,-1.113059 7.64117,1.223978 2.25369,2.97409 1.2891,7.249859 -1.62665,9.394382 -2.39377,1.760603 -5.66077,1.903053 -8.27641,0.549415" />
      </g>
    </g>
  </g>
</svg>
