<?xml version="1.0" encoding="utf-8"?>
<!-- Generator: Adobe Illustrator 16.0.0, SVG Export Plug-In . SVG Version: 6.00 Build 0)  -->
<!DOCTYPE svg PUBLIC "-//W3C//DTD SVG 1.1//EN" "http://www.w3.org/Graphics/SVG/1.1/DTD/svg11.dtd">
<svg version="1.1" id="Layer_1" xmlns="http://www.w3.org/2000/svg" xmlns:xlink="http://www.w3.org/1999/xlink" x="0px" y="0px"
	 width="75px" height="75px" viewBox="0 0 75 75" enable-background="new 0 0 75 75" xml:space="preserve">
<g>
	<g>
		<path fill="#242424" d="M37.241-0.177c-20.806,0-37.671,16.652-37.671,37.193s16.866,37.193,37.671,37.193
			c20.806,0,37.672-16.652,37.672-37.193S58.047-0.177,37.241-0.177z M18.073,44.436h-6.509v-1.124l1.817-0.359V30.899l-1.808-0.204
			v-1.308h6.4v1.308l-1.738,0.213v12.036l1.837,0.368V44.436z M34.612,30.841l-1.481,0.203v13.392H30.06l-5.877-9.399l-1.186-2.684
			v10.561l1.965,0.398v1.124h-5.481v-1.124l1.609-0.379V31.054L19.55,30.86v-1.473h4.366l6.232,10.349l1.106,2.528V31.074
			l-1.719-0.232v-1.454h5.077V30.841z M48.482,32.914l-1.146,0.126l-0.651-2.034l-3.022-0.233v12.18l2.37,0.359v1.124h-7.525v-1.124
			l2.341-0.349v-12.19l-3.091,0.233l-0.682,1.899l-1.403,0.058l0.237-3.575h12.593L48.482,32.914z M63.743,44.436h-3.694
			c-0.968,0-2.973-5.688-4.475-6.967l-1.354,1.492v3.992l1.917,0.359v1.124h-6.509v-1.124l1.777-0.359V30.908l-1.777-0.213v-1.308
			h6.292v1.308l-1.7,0.224v5.997l5.018-6.017l-1.56-0.204c0-0.436-0.01-0.872-0.02-1.308h5.6v1.308l-1.739,0.224l-4.434,4.883
			c1.599,1.502,4.316,6.802,5.244,7.15l1.413,0.359V44.436z"/>
	</g>
</g>
</svg>
