<?xml version="1.0" encoding="UTF-8" standalone="no"?>
<!-- Created with Inkscape (http://www.inkscape.org/) -->

<svg
   xmlns:dc="http://purl.org/dc/elements/1.1/"
   xmlns:cc="http://creativecommons.org/ns#"
   xmlns:rdf="http://www.w3.org/1999/02/22-rdf-syntax-ns#"
   xmlns:svg="http://www.w3.org/2000/svg"
   xmlns="http://www.w3.org/2000/svg"
   xmlns:xlink="http://www.w3.org/1999/xlink"
   xmlns:sodipodi="http://sodipodi.sourceforge.net/DTD/sodipodi-0.dtd"
   xmlns:inkscape="http://www.inkscape.org/namespaces/inkscape"
   width="465.71429"
   height="171.42857"
   id="svg12949"
   version="1.1"
   inkscape:version="0.48.4 r9939"
   sodipodi:docname="champi.svg">
  <defs
     id="defs12951">
    <linearGradient
       id="linearGradient13467">
      <stop
         style="stop-color:#ffb3b3;stop-opacity:1"
         offset="0"
         id="stop13469" />
      <stop
         id="stop13525"
         offset="0.47010085"
         style="stop-color:#da0a0a;stop-opacity:1" />
      <stop
         id="stop13523"
         offset="0.7912094"
         style="stop-color:#d80000;stop-opacity:1" />
      <stop
         style="stop-color:#7d4c3c;stop-opacity:1"
         offset="1"
         id="stop13471" />
    </linearGradient>
    <linearGradient
       inkscape:collect="always"
       xlink:href="#linearGradient13467"
       id="linearGradient13473"
       x1="271.73105"
       y1="3.6412785"
       x2="271.73105"
       y2="173.61337"
       gradientUnits="userSpaceOnUse"
       gradientTransform="translate(88.571426,180.93361)" />
  </defs>
  <sodipodi:namedview
     id="base"
     pagecolor="#ffffff"
     bordercolor="#666666"
     borderopacity="1.0"
     inkscape:pageopacity="0.0"
     inkscape:pageshadow="2"
     inkscape:zoom="0.98994949"
     inkscape:cx="72.750224"
     inkscape:cy="-180"
     inkscape:document-units="px"
     inkscape:current-layer="layer1"
     showgrid="false"
     fit-margin-top="0"
     fit-margin-left="0"
     fit-margin-right="0"
     fit-margin-bottom="0"
     inkscape:window-width="1856"
     inkscape:window-height="1049"
     inkscape:window-x="64"
     inkscape:window-y="0"
     inkscape:window-maximized="1" />
  <metadata
     id="metadata12954">
    <rdf:RDF>
      <cc:Work
         rdf:about="">
        <dc:format>image/svg+xml</dc:format>
        <dc:type
           rdf:resource="http://purl.org/dc/dcmitype/StillImage" />
        <dc:title />
      </cc:Work>
    </rdf:RDF>
  </metadata>
  <g
     inkscape:label="Calque 1"
     inkscape:groupmode="layer"
     id="layer1"
     transform="translate(-88.571426,-180.93361)">
    <rect
       style="color:#000000;fill:url(#linearGradient13473);fill-opacity:1;fill-rule:nonzero;stroke:none;stroke-width:25;marker:none;visibility:visible;display:inline;overflow:visible;enable-background:accumulate"
       id="rect12957"
       width="465.71429"
       height="171.42857"
       x="88.571426"
       y="180.93361" />
    <path
       sodipodi:type="arc"
       style="color:#000000;fill:#e76060;fill-opacity:1;fill-rule:nonzero;stroke:none;stroke-width:25;marker:none;visibility:visible;display:inline;overflow:visible;enable-background:accumulate"
       id="path13491"
       sodipodi:cx="133.34013"
       sodipodi:cy="241.71477"
       sodipodi:rx="20.203051"
       sodipodi:ry="21.718279"
       d="m 153.54318,241.71477 c 0,11.99467 -9.04521,21.71828 -20.20305,21.71828 -11.15783,0 -20.20305,-9.72361 -20.20305,-21.71828 0,-11.99468 9.04522,-21.71828 20.20305,-21.71828 11.15784,0 20.20305,9.7236 20.20305,21.71828 z"
       transform="matrix(0.5864486,0,0,0.54629629,38.706779,113.25327)" />
    <path
       transform="matrix(0.5864486,0,0,0.54629629,88.810818,161.05177)"
       sodipodi:type="arc"
       style="color:#000000;fill:#e76060;fill-opacity:1;fill-rule:nonzero;stroke:none;stroke-width:25;marker:none;visibility:visible;display:inline;overflow:visible;enable-background:accumulate"
       id="path13491-6"
       sodipodi:cx="133.34013"
       sodipodi:cy="241.71477"
       sodipodi:rx="20.203051"
       sodipodi:ry="21.718279"
       d="m 153.54318,241.71477 c 0,11.99467 -9.04521,21.71828 -20.20305,21.71828 -11.15783,0 -20.20305,-9.72361 -20.20305,-21.71828 0,-11.99468 9.04522,-21.71828 20.20305,-21.71828 11.15784,0 20.20305,9.7236 20.20305,21.71828 z" />
    <path
       d="m 153.54318,241.71477 c 0,11.99467 -9.04521,21.71828 -20.20305,21.71828 -11.15783,0 -20.20305,-9.72361 -20.20305,-21.71828 0,-11.99468 9.04522,-21.71828 20.20305,-21.71828 11.15784,0 20.20305,9.7236 20.20305,21.71828 z"
       sodipodi:ry="21.718279"
       sodipodi:rx="20.203051"
       sodipodi:cy="241.71477"
       sodipodi:cx="133.34013"
       id="path13511"
       style="color:#000000;fill:#e76060;fill-opacity:1;fill-rule:nonzero;stroke:none;stroke-width:25;marker:none;visibility:visible;display:inline;overflow:visible;enable-background:accumulate"
       sodipodi:type="arc"
       transform="matrix(0.5864486,0,0,0.54629629,156.1559,113.43565)" />
    <path
       transform="matrix(0.5864486,0,0,0.54629629,209.25971,170.95687)"
       sodipodi:type="arc"
       style="color:#000000;fill:#e76060;fill-opacity:1;fill-rule:nonzero;stroke:none;stroke-width:25;marker:none;visibility:visible;display:inline;overflow:visible;enable-background:accumulate"
       id="path13513"
       sodipodi:cx="133.34013"
       sodipodi:cy="241.71477"
       sodipodi:rx="20.203051"
       sodipodi:ry="21.718279"
       d="m 153.54318,241.71477 c 0,11.99467 -9.04521,21.71828 -20.20305,21.71828 -11.15783,0 -20.20305,-9.72361 -20.20305,-21.71828 0,-11.99468 9.04522,-21.71828 20.20305,-21.71828 11.15784,0 20.20305,9.7236 20.20305,21.71828 z" />
    <path
       d="m 153.54318,241.71477 c 0,11.99467 -9.04521,21.71828 -20.20305,21.71828 -11.15783,0 -20.20305,-9.72361 -20.20305,-21.71828 0,-11.99468 9.04522,-21.71828 20.20305,-21.71828 11.15784,0 20.20305,9.7236 20.20305,21.71828 z"
       sodipodi:ry="21.718279"
       sodipodi:rx="20.203051"
       sodipodi:cy="241.71477"
       sodipodi:cx="133.34013"
       id="path13515"
       style="color:#000000;fill:#e76060;fill-opacity:1;fill-rule:nonzero;stroke:none;stroke-width:25;marker:none;visibility:visible;display:inline;overflow:visible;enable-background:accumulate"
       sodipodi:type="arc"
       transform="matrix(0.5864486,0,0,0.54629629,254.94316,109.38569)" />
    <path
       transform="matrix(0.5864486,0,0,0.54629629,342.68953,123.76166)"
       sodipodi:type="arc"
       style="color:#000000;fill:#e76060;fill-opacity:1;fill-rule:nonzero;stroke:none;stroke-width:25;marker:none;visibility:visible;display:inline;overflow:visible;enable-background:accumulate"
       id="path13517"
       sodipodi:cx="133.34013"
       sodipodi:cy="241.71477"
       sodipodi:rx="20.203051"
       sodipodi:ry="21.718279"
       d="m 153.54318,241.71477 c 0,11.99467 -9.04521,21.71828 -20.20305,21.71828 -11.15783,0 -20.20305,-9.72361 -20.20305,-21.71828 0,-11.99468 9.04522,-21.71828 20.20305,-21.71828 11.15784,0 20.20305,9.7236 20.20305,21.71828 z" />
    <path
       d="m 153.54318,241.71477 c 0,11.99467 -9.04521,21.71828 -20.20305,21.71828 -11.15783,0 -20.20305,-9.72361 -20.20305,-21.71828 0,-11.99468 9.04522,-21.71828 20.20305,-21.71828 11.15784,0 20.20305,9.7236 20.20305,21.71828 z"
       sodipodi:ry="21.718279"
       sodipodi:rx="20.203051"
       sodipodi:cy="241.71477"
       sodipodi:cx="133.34013"
       id="path13519"
       style="color:#000000;fill:#e76060;fill-opacity:1;fill-rule:nonzero;stroke:none;stroke-width:25;marker:none;visibility:visible;display:inline;overflow:visible;enable-background:accumulate"
       sodipodi:type="arc"
       transform="matrix(0.5864486,0,0,0.54629629,436.2443,102.03402)" />
    <path
       transform="matrix(0.5864486,0,0,0.54629629,399.72775,175.27807)"
       sodipodi:type="arc"
       style="color:#000000;fill:#e76060;fill-opacity:1;fill-rule:nonzero;stroke:none;stroke-width:25;marker:none;visibility:visible;display:inline;overflow:visible;enable-background:accumulate"
       id="path13521"
       sodipodi:cx="133.34013"
       sodipodi:cy="241.71477"
       sodipodi:rx="20.203051"
       sodipodi:ry="21.718279"
       d="m 153.54318,241.71477 c 0,11.99467 -9.04521,21.71828 -20.20305,21.71828 -11.15783,0 -20.20305,-9.72361 -20.20305,-21.71828 0,-11.99468 9.04522,-21.71828 20.20305,-21.71828 11.15784,0 20.20305,9.7236 20.20305,21.71828 z" />
  </g>
</svg>
