<?xml version="1.0" encoding="UTF-8" standalone="no"?>
<!-- Created with Inkscape (http://www.inkscape.org/) -->

<svg
   xmlns:dc="http://purl.org/dc/elements/1.1/"
   xmlns:cc="http://creativecommons.org/ns#"
   xmlns:rdf="http://www.w3.org/1999/02/22-rdf-syntax-ns#"
   xmlns:svg="http://www.w3.org/2000/svg"
   xmlns="http://www.w3.org/2000/svg"
   xmlns:xlink="http://www.w3.org/1999/xlink"
   xmlns:sodipodi="http://sodipodi.sourceforge.net/DTD/sodipodi-0.dtd"
   xmlns:inkscape="http://www.inkscape.org/namespaces/inkscape"
   width="562.85712"
   height="286.85715"
   id="svg13559"
   version="1.1"
   inkscape:version="0.48.4 r9939"
   sodipodi:docname="champi_fond.svg">
  <defs
     id="defs13561">
    <linearGradient
       inkscape:collect="always"
       id="linearGradient14119">
      <stop
         style="stop-color:#e5efe0;stop-opacity:1;"
         offset="0"
         id="stop14121" />
      <stop
         style="stop-color:#b8dbc5;stop-opacity:1"
         offset="1"
         id="stop14123" />
    </linearGradient>
    <linearGradient
       inkscape:collect="always"
       id="linearGradient14098">
      <stop
         style="stop-color:#1b2d82;stop-opacity:1"
         offset="0"
         id="stop14100" />
      <stop
         id="stop14181"
         offset="0.3096019"
         style="stop-color:#2594da;stop-opacity:1" />
      <stop
         id="stop14179"
         offset="0.53005612"
         style="stop-color:#2ec4fc;stop-opacity:1" />
      <stop
         style="stop-color:#ffffff;stop-opacity:1"
         offset="1"
         id="stop14102" />
    </linearGradient>
    <linearGradient
       inkscape:collect="always"
       xlink:href="#linearGradient14098"
       id="linearGradient14104"
       x1="407.14288"
       y1="-1.9235464"
       x2="398.57141"
       y2="203.79077"
       gradientUnits="userSpaceOnUse"
       gradientTransform="translate(74.285713,351.21933)" />
    <linearGradient
       inkscape:collect="always"
       xlink:href="#linearGradient14119"
       id="linearGradient14125"
       x1="334.28571"
       y1="632.36218"
       x2="334.28571"
       y2="532.35199"
       gradientUnits="userSpaceOnUse"
       gradientTransform="translate(5.0074955e-7,2.8328255e-6)" />
  </defs>
  <sodipodi:namedview
     id="base"
     pagecolor="#ffffff"
     bordercolor="#666666"
     borderopacity="1.0"
     inkscape:pageopacity="0.0"
     inkscape:pageshadow="2"
     inkscape:zoom="1.4"
     inkscape:cx="262.92929"
     inkscape:cy="105.71429"
     inkscape:document-units="px"
     inkscape:current-layer="layer1"
     showgrid="false"
     inkscape:window-width="1856"
     inkscape:window-height="1049"
     inkscape:window-x="64"
     inkscape:window-y="0"
     inkscape:window-maximized="1"
     fit-margin-top="0"
     fit-margin-left="0"
     fit-margin-right="0"
     fit-margin-bottom="0" />
  <metadata
     id="metadata13564">
    <rdf:RDF>
      <cc:Work
         rdf:about="">
        <dc:format>image/svg+xml</dc:format>
        <dc:type
           rdf:resource="http://purl.org/dc/dcmitype/StillImage" />
        <dc:title></dc:title>
      </cc:Work>
    </rdf:RDF>
  </metadata>
  <g
     inkscape:label="Calque 1"
     inkscape:groupmode="layer"
     id="layer1"
     transform="translate(-74.285713,-351.21933)">
    <rect
       y="351.21933"
       x="74.285713"
       height="245.71429"
       width="562.85712"
       id="rect14096"
       style="color:#000000;fill:url(#linearGradient14104);fill-opacity:1;fill-rule:nonzero;stroke:none;stroke-width:25;marker:none;visibility:visible;display:inline;overflow:visible;enable-background:accumulate" />
    <path
       style="color:#000000;fill:url(#linearGradient14125);fill-opacity:1;fill-rule:nonzero;stroke:#add1ba;stroke-width:2;stroke-miterlimit:4;stroke-opacity:1;marker:none;visibility:visible;display:inline;overflow:visible;enable-background:accumulate"
       d="m 64.285713,520.64789 c 0,0 30.256063,12.00841 75.714287,6 34.13027,-4.51115 88.4811,23.84568 131.36081,19.78214 18.6434,-1.76676 44.54189,-10.43483 70.9448,-7.91819 25.86076,2.46497 52.20544,16.09553 72.69075,16.32229 42.01819,0.46511 84.30183,-23.87659 122.66697,-17.61883 19.44827,3.17222 35.78285,2.71056 51.87397,1.57775 18.14046,-1.27709 35.97148,-27.40715 57.60553,-26.14516 l 0,141.14286 -582.857117,0 z"
       id="rect13586"
       inkscape:connector-curvature="0"
       sodipodi:nodetypes="csssssscccc" />
    <path
       style="fill:#92e2ff;stroke:none;stroke-width:1px;stroke-linecap:butt;stroke-linejoin:miter;stroke-opacity:1;fill-opacity:0.15046297"
       d="m 169.42857,372.50505 c 2.61905,-0.47619 5.2381,-0.95238 7.85714,-1.42857 0.47619,-0.2381 0.90652,-0.60988 1.42857,-0.71429 0.70042,-0.14008 1.43575,0.10102 2.14286,0 1.94365,-0.27766 3.77064,-1.15091 5.71429,-1.42857 0.7071,-0.10102 1.43575,0.10101 2.14285,0 0.97183,-0.13883 1.88532,-0.57545 2.85715,-0.71429 0.7071,-0.10101 1.43575,0.10102 2.14285,0 1.94365,-0.27766 3.76607,-1.18504 5.71429,-1.42857 1.89005,-0.23625 3.82867,0.26938 5.71429,0 0.74535,-0.10648 1.3975,-0.6078 2.14285,-0.71428 3.01814,-0.43117 3.26565,0.36285 6.42857,0.71428 0.94656,0.10518 1.90477,0 2.85715,0 2.00776,0 1.79637,-0.11549 4.28571,0.71429 0.50508,0.16836 0.9235,0.54593 1.42857,0.71428 1.86263,0.62088 3.85166,0.8077 5.71429,1.42858 0.50507,0.16835 0.95238,0.47619 1.42857,0.71428 0.95238,0.47619 1.94409,0.88074 2.85714,1.42857 0.28874,0.17324 0.41312,0.5637 0.71429,0.71429 0.21296,0.10648 0.71429,0.23809 0.71429,0 0,-0.5324 -0.18189,-1.42857 -0.71429,-1.42857 -0.48174,0 0.29249,1.68718 0,2.85714 -0.12913,0.5165 -0.58516,0.91207 -0.71429,1.42857 -0.17324,0.69296 0,1.42857 0,2.14286 0,0.23809 -0.1981,0.58221 0,0.71428 0.62647,0.41765 1.45082,0.4177 2.14286,0.71429 0.9787,0.41944 1.86015,1.0547 2.85714,1.42857 4.85547,1.8208 0.92566,0.0352 5,0.71429 0.74268,0.12378 1.39454,0.63114 2.14286,0.71428 1.41984,0.15776 2.85714,0 4.28572,0 1.19047,0 2.38095,0 3.57142,0 11.41195,0 -3.54271,0.20203 9.28572,-0.71428 1.66243,-0.11875 3.33333,0 5,0 1.90476,0 3.80952,0 5.71428,0 1.53137,0 4.42924,-0.18358 5.71429,0 0.74536,0.10648 1.40018,0.5905 2.14286,0.71428 0.70456,0.11743 1.43408,-0.0886 2.14285,0 0.9058,0.11323 5.32747,1.06154 6.42858,1.42857 1.21638,0.40547 2.35504,1.02311 3.57142,1.42858 2.60197,0.86732 3.37632,0.38938 5.71429,2.14285 0.19048,0.14286 0.16836,0.54593 0,0.71429 -0.16836,0.16836 -0.54593,-0.16836 -0.71429,0 -0.16835,0.16836 0.16836,0.54593 0,0.71428 -0.16835,0.16836 -0.51617,-0.13207 -0.71428,0 -0.56033,0.37356 -0.88982,1.02451 -1.42857,1.42858 -0.42592,0.31943 -0.95238,0.47619 -1.42857,0.71428 -0.95239,0.47619 -1.86851,1.03312 -2.85715,1.42857 -0.69907,0.27963 -1.44378,0.43466 -2.14285,0.71429 -0.49432,0.19773 -0.93426,0.51656 -1.42858,0.71428 -0.69907,0.27963 -1.44378,0.43466 -2.14285,0.71429 -0.98864,0.39545 -1.84699,1.09185 -2.85715,1.42857 -0.68043,0.22681 -2.87568,-0.23191 -3.57142,0 -0.50508,0.16836 -0.90342,0.62676 -1.42858,0.71429 -0.93942,0.15657 -1.91058,-0.10518 -2.85714,0 -1.20663,0.13407 -2.36958,0.54259 -3.57143,0.71428 -0.4714,0.0673 -0.95238,0 -1.42857,0 -0.95238,0 -1.90476,0 -2.85714,0 -2.38095,0 -4.76191,0 -7.14286,0 -1.19047,0 -2.38095,0 -3.57143,0 -0.23809,0 -0.48841,-0.0753 -0.71428,0 -1.72408,0.57469 -2.20399,1.76319 -3.57143,2.85715 -0.67035,0.53627 -1.42857,0.95238 -2.14286,1.42857 -0.71428,0.47619 -1.40673,0.98689 -2.14286,1.42857 -0.45652,0.27391 -0.97204,0.44037 -1.42857,0.71428 -0.73612,0.44168 -1.40673,0.9869 -2.14285,1.42858 -0.89679,0.53807 -2.62794,1.27132 -3.57143,1.42857 -0.70457,0.11742 -1.43829,-0.11743 -2.14286,0 -0.74268,0.12378 -1.40018,0.5905 -2.14286,0.71428 -0.70456,0.11743 -1.42857,0 -2.14285,0 -0.2381,0 -0.48841,-0.0753 -0.71429,0 -0.50508,0.16836 -0.90342,0.62676 -1.42857,0.71429 -0.93943,0.15657 -1.90476,0 -2.85715,0 -0.71428,0 -1.42857,0 -2.14285,0 -0.95238,0 -1.90476,0 -2.85715,0 -0.71428,0 -1.43575,0.10101 -2.14285,0 -0.97183,-0.13883 -1.88532,-0.57546 -2.85715,-0.71429 -0.7071,-0.10101 -1.42857,0 -2.14285,0 -0.95238,0 -1.90476,0 -2.85715,0 -0.23809,0 -0.47619,0 -0.71428,0 -0.2381,0 -0.54593,0.16836 -0.71429,0 -0.16836,-0.16836 0.21296,-0.6078 0,-0.71428 -0.42591,-0.21296 -0.95886,0.0783 -1.42857,0 -0.96833,-0.16139 -1.91322,-0.4446 -2.85714,-0.71429 -1.44791,-0.41369 -2.85714,-0.95238 -4.28572,-1.42857 -0.71428,-0.2381 -1.40455,-0.56663 -2.14285,-0.71429 -1.16736,-0.23347 -2.39292,0.16836 -3.57143,0 -0.97183,-0.13883 -1.89452,-0.52176 -2.85714,-0.71428 -0.23348,-0.0467 -0.47619,0 -0.71429,0 -0.95238,0 -1.90476,0 -2.85714,0 -0.95238,0 -1.90949,-0.0948 -2.85715,0 -1.44108,0.14411 -2.84462,0.57018 -4.28571,0.71428 -4.28571,0.42858 -1.60714,-0.53571 -6.42857,0 -0.97569,0.10841 -1.88532,0.57546 -2.85714,0.71429 -0.70711,0.10102 -1.42858,0 -2.14286,0 -1.66667,0 -3.33333,0 -5,0 -1.66667,0 -3.33333,0 -5,0 -0.95238,0 -1.91772,0.15657 -2.85714,0 -0.52516,-0.0875 -0.91207,-0.58516 -1.42858,-0.71429 -0.67226,-0.16806 -1.47058,0.16807 -2.14285,0 -1.46089,-0.36522 -2.82483,-1.06335 -4.28572,-1.42857 -0.23098,-0.0577 -0.48081,0.0467 -0.71428,0 -2.45123,-0.49024 -4.77958,-1.3551 -7.14286,-2.14285 -0.71429,-0.2381 -1.45081,-0.4177 -2.14286,-0.71429 -0.9787,-0.41944 -1.86014,-1.0547 -2.85714,-1.42857 -0.91919,-0.3447 -1.93796,-0.36959 -2.85714,-0.71429 -0.95238,-0.47619 -1.90476,-0.95238 -2.85715,-1.42857 -0.23809,-0.23809 -0.41311,-0.5637 -0.71428,-0.71428 -0.21296,-0.10648 -0.54593,0.16835 -0.71429,0 -0.58467,-0.58468 0.6585,-1.20542 0.71429,-1.42858 0.17324,-0.69295 -0.22588,-1.46522 0,-2.14285 0.0753,-0.22588 0.54593,0.16836 0.71428,0 0.16836,-0.16836 -0.13207,-0.51618 0,-0.71429 0.37356,-0.56033 1.00788,-0.90271 1.42858,-1.42857 3.33333,-4.16667 -0.71429,-0.35714 3.57142,-3.57143 0.26938,-0.20203 0.44492,-0.51225 0.71429,-0.71428 1.37354,-1.03016 2.85714,-1.90477 4.28571,-2.85715 0.71429,-0.47619 1.35381,-1.0904 2.14286,-1.42857 0.90232,-0.38671 1.95483,-0.32758 2.85714,-0.71428 0.78906,-0.33817 1.35381,-1.09041 2.14286,-1.42858 0.90232,-0.3867 1.95483,-0.32757 2.85714,-0.71428 0.78906,-0.33817 1.37503,-1.04466 2.14286,-1.42857 1.02473,-0.51237 4.08457,-1.19972 5,-1.42857 2.85714,-0.71429 5.6606,-1.69504 8.57143,-2.14286 1.24222,-0.19111 4.76051,0 6.42857,0 0.2381,0 0.48841,-0.0753 0.71429,0 0.50507,0.16836 0.89617,0.71428 1.42857,0.71428 0.23809,0 0.23809,-0.71428 0,-0.71428 -0.33672,0 -0.47619,0.47619 -0.71429,0.71428"
       id="path14147"
       inkscape:connector-curvature="0" />
    <path
       style="fill:#92e2ff;stroke:none;stroke-width:1px;stroke-linecap:butt;stroke-linejoin:miter;stroke-opacity:1;fill-opacity:0.22453703"
       d="m 468.4315,396.13757 c -2.28907,0.65507 -4.53464,1.48764 -6.8672,1.96522 -0.73762,0.15101 -1.50418,-0.12256 -2.25667,-0.0972 -0.34074,0.0115 -2.6736,0.74829 -2.74689,0.78609 -0.66918,0.34509 -1.24242,0.85085 -1.86363,1.27628 -0.62121,0.42543 -1.24242,0.85085 -1.86364,1.27628 -0.16339,0.29441 -0.24208,0.65561 -0.4902,0.88324 -0.17544,0.16096 -0.57117,-0.0117 -0.68671,0.19652 -0.11555,0.20818 -0.0117,0.57118 0.19652,0.68672 0.20818,0.11554 0.44884,-0.20676 0.68671,-0.19652 2.4555,0.10571 0.83237,0.73238 3.82664,0.39083 0.70969,-0.0809 1.37344,-0.39304 2.06016,-0.58956 0.68673,-0.19652 1.37344,-0.39304 2.06016,-0.58956 1.57085,-0.44954 4.71702,-1.04957 5.98396,-2.45541 0.90166,-1.00053 0.7092,-3.0354 1.96079,-3.53297 1.48421,-0.59004 3.12298,1.06205 4.70988,0.88103 1.43895,-0.16413 2.60175,-1.27447 3.92379,-1.86584 1.75226,-0.78382 3.49768,-1.59077 5.29724,-2.25889 4.25778,-1.58079 2.94202,-0.60472 7.75043,-1.47502 4.12773,-0.74709 1.34454,-1.07254 5.69027,-0.88545 2.50087,0.10767 4.06475,0.24856 6.27985,1.17471 0.62131,0.25978 1.17765,0.6536 1.76648,0.9804 0.29441,0.1634 0.55226,0.42828 0.88324,0.49019 0.23404,0.0438 0.45992,-0.26899 0.68671,-0.19651 1.28298,0.40994 2.29034,1.44124 3.53297,1.96079 0.79202,0.33115 1.66118,0.45272 2.4532,0.78387 2.02524,0.84677 3.95357,1.91571 5.98616,2.74467 3.82161,1.55859 6.48467,2.4879 10.49953,2.93898 5.36816,0.60312 12.01407,0.67364 17.36671,0.97377 2.78246,0.15601 5.55324,0.56472 8.34,0.58514 1.44824,0.0106 2.87334,-0.37475 4.31684,-0.49241 2.18787,-0.17833 4.39253,-0.14647 6.57351,-0.39525 25.80928,-2.94398 -14.56293,1.12764 13.24419,-3.04718 3.14138,-0.47164 6.37002,-0.0613 9.51692,-0.49462 13.47917,-1.85592 -2.57606,-1.52559 11.18403,-2.45762 1.64427,-0.11138 9.63389,0.60507 10.59667,0.6823 2.02777,0.16266 4.08372,0.11394 6.08333,0.48799 0.23403,0.0438 -0.0117,0.57118 0.19652,0.68671 0.4655,0.25836 1.07877,0.0883 1.56996,0.29368 0.93197,0.38966 1.76648,0.9804 2.64972,1.4706 1.93439,1.07358 1.86779,1.18767 4.21967,1.76427 1.03418,0.25354 2.07521,0.60063 3.13993,0.58735 6.67695,-0.0833 3.13694,-0.27821 7.55391,-2.16173 7.60927,-3.24481 -3.85672,3.1304 7.35739,-2.84845 1.52956,-0.81549 2.96147,-1.8032 4.41399,-2.74909 1.26188,-0.82174 2.37701,-1.88597 3.72728,-2.55257 1.06748,-0.52699 2.37553,-0.43697 3.4336,-0.9826 0.21161,-0.10913 -0.13101,-0.45782 -0.19652,-0.68672 -0.13101,-0.45782 -0.15491,-0.96107 -0.39304,-1.37344 -0.26625,-0.46104 -0.75367,-0.75608 -1.07977,-1.17692 -0.46117,-0.59516 -0.81511,-1.26848 -1.27629,-1.86363 -1.09868,-1.4179 -1.472,-1.18148 -2.35604,-3.04056 -0.30674,-0.64507 -0.28282,-1.41509 -0.58956,-2.06016 -0.32334,-0.67996 -0.93119,-1.19445 -1.27628,-1.86364 -0.0133,-0.0248 -0.58572,-2.05761 -0.58956,-2.06015 -0.46551,-0.25836 -1.0557,-0.15594 -1.56996,-0.29368 -0.82924,-0.2221 -1.62397,-0.56178 -2.45321,-0.78388 -0.51427,-0.13774 -1.05569,-0.15593 -1.56995,-0.29367 -1.65848,-0.4442 -3.21875,-1.25206 -4.90641,-1.56775 -1.48017,-0.27688 -3.03318,0.0826 -4.51336,-0.19431 -0.84382,-0.15785 -1.60937,-0.62603 -2.4532,-0.78388 -0.46807,-0.0876 -0.89769,0.41353 -1.37344,0.39304 -1.0638,-0.0458 -2.09327,-0.39157 -3.13991,-0.58735 -0.52332,-0.0979 -1.03933,-0.33693 -1.56996,-0.29368 -0.71193,0.058 -1.34824,0.53154 -2.06016,0.58957 -0.53064,0.0433 -1.04032,-0.23959 -1.56996,-0.29368 -5.09227,-0.5201 0.71568,0.57214 -4.70989,-0.88103 -0.51426,-0.13774 -1.03805,-0.27078 -1.56996,-0.29368 -0.23787,-0.0102 -0.47854,0.31207 -0.68671,0.19652 -0.20818,-0.11554 -0.13101,-0.45781 -0.19652,-0.68672 -0.52332,-0.0979 -1.04033,-0.23958 -1.56997,-0.29367 -2.94981,-0.30128 -5.87614,0.29684 -8.83019,0.29809 -0.75293,3.2e-4 -1.50376,-0.0975 -2.25668,-0.0971 -0.98169,4.1e-4 -1.96262,0.14159 -2.94339,0.0994 -0.53191,-0.0229 -1.03787,-0.31164 -1.56997,-0.29367 -3.12614,0.89462 0.0534,0.33495 -2.25668,-0.0972 -1.25971,-0.23564 -0.11372,0.62869 -1.37343,0.39304 -0.84384,-0.15784 -1.62397,-0.56177 -2.45321,-0.78387 -0.52332,-0.0979 -1.04664,-0.19579 -1.56995,-0.29368 -0.22892,0.0655 -0.45269,0.2403 -0.68673,0.19652 -0.33098,-0.0619 -0.55226,-0.42828 -0.88323,-0.4902 -0.23404,-0.0438 -0.44876,0.18849 -0.68673,0.19653 -0.75249,0.0254 -1.50445,-0.0648 -2.25668,-0.0972 -0.75222,-0.0324 -1.51659,0.0413 -2.25667,-0.0972 -0.84384,-0.15784 -1.59629,-0.8354 -2.4532,-0.78387 -1.426,0.0857 -2.71694,0.91204 -4.12033,1.17913 -1.19264,0.22697 -2.43317,0.0928 -3.63011,0.29588 -0.93896,0.15931 -1.83126,0.52406 -2.74688,0.78609 -2.97578,0.85159 -5.95156,1.70318 -8.92735,2.55477 -7.31194,2.09249 2.5338,-0.53083 -6.37699,1.08197 -1.17145,0.21203 -2.28906,0.65507 -3.4336,0.98261 -1.83125,0.52406 -3.6625,1.04811 -5.49376,1.57217 -1.14453,0.32754 -2.28906,0.65507 -3.4336,0.98261 -0.45781,0.13101 -0.89751,0.37697 -1.37344,0.39304 -0.53209,0.018 -1.03786,-0.31164 -1.56995,-0.29368 -0.47592,0.0161 -0.91563,0.26203 -1.37344,0.39305 -0.68672,0.19652 -1.35437,0.47974 -2.06016,0.58956 -1.19961,0.18667 -2.42389,0.15829 -3.63012,0.29589 -0.23656,0.027 -0.45781,0.13101 -0.68672,0.19652 -0.91562,0.26202 -1.83125,0.52405 -2.74687,0.78608 -0.91563,0.26203 -1.83126,0.52406 -2.74688,0.78609 -3.20469,0.9171 -6.40938,1.83419 -9.61408,2.75129 -1.60233,0.45855 -3.20468,0.9171 -4.80703,1.37565 -0.68672,0.19652 -1.37344,0.39304 -2.06015,0.58956 -0.45781,0.13102 -0.89883,0.35436 -1.37345,0.39305 -0.75043,0.0612 -1.50624,-0.15832 -2.25667,-0.0972 -0.47463,0.0387 -0.90032,0.33908 -1.37344,0.39304 -5.54553,0.63257 -0.24744,-0.58913 -6.57352,0.39526 -0.7058,0.10982 -1.35048,0.50861 -2.06016,0.58956 -1.49614,0.17066 -3.01721,-0.36497 -4.51336,-0.19431 -0.70968,0.0809 -1.35047,0.50861 -2.06015,0.58956 -1.49615,0.17066 -3.01722,-0.36497 -4.51337,-0.19431 -0.70968,0.081 -1.34652,0.62029 -2.06016,0.58957 -0.23786,-0.0102 0.0414,-0.67648 -0.19652,-0.68672 -0.71362,-0.0307 -1.35436,0.47974 -2.06015,0.58956 -1.19962,0.18667 -2.43747,0.0689 -3.63012,0.29589 -1.40339,0.26708 -2.74687,0.78608 -4.12032,1.17912 -1.37344,0.39305 -2.74687,0.78609 -4.12031,1.17913 -1.14454,0.32754 -2.28906,0.65507 -3.4336,0.98261 -0.2289,0.0655 -0.57118,-0.0117 -0.68671,0.19652 -0.11555,0.20818 -0.0324,0.75222 0.19652,0.68672 0.32371,-0.0926 0.16647,-0.7906 0.49019,-0.88324 0.22891,-0.0655 -0.0117,0.57118 0.19652,0.68672 0.46551,0.25835 1.06282,0.13163 1.56996,0.29367 0.32075,0.10249 0.60483,0.30082 0.88324,0.4902 1.26056,0.85747 2.48633,1.76501 3.72949,2.64751 z"
       id="path14149"
       inkscape:connector-curvature="0" />
    <path
       style="fill:#b9ecff;stroke:none;stroke-width:1px;stroke-linecap:butt;stroke-linejoin:miter;stroke-opacity:1;fill-opacity:0.1550926"
       d="m 414.99999,425.21933 c -2.38095,-0.71428 -4.72072,-1.5839 -7.14285,-2.14285 -0.696,-0.16062 -1.43575,0.10101 -2.14286,0 -3.11751,-0.44536 -2.28636,-0.75016 -5,-1.42857 -1.1778,-0.29446 -2.39362,-0.41984 -3.57143,-0.71429 -0.73044,-0.18261 -1.4189,-0.50744 -2.14286,-0.71429 -1.88784,-0.53938 -3.79765,-1.00265 -5.71428,-1.42857 -1.18514,-0.26336 -2.39363,-0.41983 -3.57143,-0.71428 -0.73044,-0.18261 -1.40018,-0.59051 -2.14286,-0.71429 -0.70456,-0.11743 -1.44244,0.14008 -2.14285,0 -0.52206,-0.10441 -0.95238,-0.47619 -1.42858,-0.71428 -0.71428,-0.2381 -1.40017,-0.59051 -2.14285,-0.71429 -0.70457,-0.11743 -1.42857,0 -2.14286,0 -0.95238,0 -1.91433,-0.13469 -2.85714,0 -0.74536,0.10648 -1.42857,0.47619 -2.14286,0.71429 -0.71429,0.23809 -1.46942,0.37756 -2.14286,0.71428 -0.76783,0.38392 -1.42857,0.95238 -2.14285,1.42857 -1.42858,0.95238 -2.96674,1.75799 -4.28572,2.85715 -0.77602,0.64668 -1.36683,1.49617 -2.14286,2.14285 -1.89844,1.58204 -2.77707,1.5869 -5,2.85715 -1.49071,0.85183 -2.75004,2.0893 -4.28571,2.85714 -0.8492,0.4246 -4.31343,1.31414 -5,1.42857 -0.46971,0.0783 -0.9666,-0.11549 -1.42857,0 -0.5165,0.12913 -0.90651,0.60987 -1.42857,0.71429 -0.70042,0.14008 -1.42857,0 -2.14286,0 -0.95238,0 -1.90476,0 -2.85714,0 -1.90476,0 -3.80953,0 -5.71429,0 -0.95238,0 -1.91211,0.11812 -2.85714,0 -0.97411,-0.12177 -1.88532,-0.57546 -2.85714,-0.71429 -0.70711,-0.10102 -1.43575,0.10102 -2.14286,0 -0.97183,-0.13883 -1.88146,-0.60588 -2.85714,-0.71429 -1.1832,-0.13146 -2.39292,0.16836 -3.57143,0 -0.52705,-0.0753 -0.90153,-0.63899 -1.42857,-0.71428 -3.75,-0.53572 -3,0.42857 -6.42858,0 -0.97411,-0.12177 -1.88531,-0.57545 -2.85714,-0.71429 -0.70711,-0.10101 -1.43575,0.10102 -2.14286,0 -0.97182,-0.13883 -1.88303,-0.59252 -2.85714,-0.71428 -0.94502,-0.11813 -1.90476,0 -2.85714,0 -0.95238,0 -1.90476,0 -2.85714,0 -0.47619,0 -0.95886,0.0783 -1.42858,0 -0.96833,-0.16139 -1.8888,-0.5529 -2.85714,-0.71429 -0.46971,-0.0783 -0.95238,0 -1.42857,0 -0.95238,0 -1.90476,0 -2.85714,0 -1.42857,0 -2.86588,-0.15776 -4.28572,0 -1.20662,0.13407 -2.3648,0.58022 -3.57143,0.71429 -0.94655,0.10517 -1.91211,-0.11813 -2.85714,0 -1.94822,0.24352 -3.77761,1.10579 -5.71428,1.42857 -0.46972,0.0783 -0.9666,-0.11549 -1.42858,0 -0.5165,0.12912 -0.91207,0.58516 -1.42857,0.71428 -0.46197,0.1155 -0.9666,-0.11549 -1.42857,0 -0.5165,0.12913 -0.93425,0.51656 -1.42857,0.71429 -1.39814,0.55926 -2.85714,0.95238 -4.28571,1.42857 -0.71429,0.2381 -1.41891,0.50744 -2.14286,0.71429 -0.94392,0.26969 -1.95483,0.32758 -2.85714,0.71428 -0.78906,0.33817 -1.3458,1.10975 -2.14286,1.42857 -0.44213,0.17686 -0.97682,-0.15058 -1.42857,0 -0.63888,0.21296 -0.82624,1.12741 -1.42857,1.42858 -0.21296,0.10648 -0.4833,-0.0577 -0.71429,0 -5.94537,1.48634 0.86222,-0.0493 -3.57143,1.42857 -0.22588,0.0753 -0.54593,-0.16836 -0.71428,0 -0.16836,0.16836 0.23809,0.71428 0,0.71428 -0.2381,0 -0.16836,-0.88264 0,-0.71428 3.65079,3.65079 -6.42858,-1.19048 5,3.57143 1.39001,0.57917 2.87574,0.89983 4.28571,1.42857 2.95577,1.10841 -0.2839,0.46474 3.57143,1.42857 0.69296,0.17324 1.43829,-0.11743 2.14286,0 0.96833,0.16139 1.88531,0.57545 2.85714,0.71428 1.41421,0.20203 2.86423,-0.14214 4.28571,0 0.98744,0.0987 5.3188,1.0183 7.14286,0.71429 0.74268,-0.12378 1.3975,-0.60781 2.14286,-0.71429 0.94281,-0.13468 1.90476,0 2.85714,0 0.2381,0 0.48841,0.0753 0.71429,0 0.50507,-0.16835 0.90341,-0.62676 1.42857,-0.71428 0.93942,-0.15657 1.91433,0.13469 2.85714,0 0.74536,-0.10648 1.42857,-0.47619 2.14286,-0.71429 1.42857,-0.47619 2.88757,-0.86931 4.28571,-1.42857 0.49432,-0.19773 0.90651,-0.60987 1.42857,-0.71428 0.70042,-0.14009 1.43829,0.11742 2.14286,0 0.74268,-0.12378 1.41241,-0.53168 2.14286,-0.71429 0.23098,-0.0577 0.48841,0.0753 0.71428,0 2.33164,-0.77721 0.59875,-0.93312 3.57143,-1.42857 0.70457,-0.11743 1.43829,0.11743 2.14286,0 1.48536,-0.24756 2.80036,-1.18101 4.28571,-1.42857 0.93943,-0.15657 1.90477,0 2.85715,0 0.47619,0 0.96659,-0.1155 1.42857,0 1.46088,0.36522 2.85714,0.95238 4.28571,1.42857 0.71429,0.23809 1.42857,0.47619 2.14286,0.71428 0.71428,0.2381 1.46942,0.37757 2.14286,0.71429 0.76783,0.38392 1.37502,1.04465 2.14285,1.42857 2.77999,1.38999 1.79599,0.0554 5,1.42857 0.78906,0.33817 1.3458,1.10975 2.14286,1.42857 0.44213,0.17686 0.98644,-0.17685 1.42857,0 0.79707,0.31883 1.42857,0.95238 2.14286,1.42857 0.95238,0.2381 1.93796,0.36959 2.85714,0.71429 4.77935,1.79225 1.0467,0.97832 5.71429,3.57143 1.76527,1.77343 4.40826,1.1327 6.42857,2.14285 0.21296,0.10648 -0.21296,0.60781 0,0.71429 0.42592,0.21296 0.95238,0 1.42857,0 0.95238,0 1.90476,0 2.85714,0 1.66667,0 3.33334,0 5,0 0.71429,0 1.42857,0 2.14286,0 0.2381,0 0.4833,0.0577 0.71429,0 1.46088,-0.36522 2.80035,-1.18101 4.28571,-1.42857 0.70457,-0.11743 1.43829,0.11742 2.14286,0 0.74268,-0.12378 1.42857,-0.47619 2.14285,-0.71429 0.71429,-0.23809 1.44379,-0.43466 2.14286,-0.71428 1.66546,-0.66619 1.54087,-1.09015 3.57143,-1.42858 0.70457,-0.11742 1.43829,0.11743 2.14286,0 0.74268,-0.12378 1.4189,-0.50744 2.14285,-0.71428 0.94392,-0.26969 1.89452,-0.52176 2.85715,-0.71429 0.93388,-0.18677 1.91433,0.13469 2.85714,0 0.97183,-0.13883 1.89452,-0.52176 2.85714,-0.71428 0.23347,-0.0467 0.47619,0 0.71429,0 3.73275,0 2.78858,-0.15657 7.14286,0.71428 0.96262,0.19253 1.88303,0.59252 2.85714,0.71429 0.94503,0.11813 1.91433,-0.13469 2.85714,0 1.49071,0.21296 2.80036,1.18101 4.28572,1.42857 0.70456,0.11743 1.44244,-0.14008 2.14285,0 0.52206,0.10441 0.90342,0.62676 1.42857,0.71429 0.93943,0.15657 1.91212,-0.11813 2.85715,0 0.97411,0.12176 1.88145,0.60587 2.85714,0.71428 1.41983,0.15776 2.85714,0 4.28571,0 2.85715,0 5.71429,0 8.57143,0 7.85715,0 15.71429,0 23.57143,0 1.19048,0 2.38095,0 3.57143,0 0.2381,0 0.4833,0.0577 0.71429,0 4.62746,-1.15686 -0.51537,-0.75045 7.14285,-2.14286 0.93702,-0.17036 1.91212,0.11813 2.85715,0 0.97411,-0.12176 1.89451,-0.52176 2.85714,-0.71428 0.23347,-0.0467 0.4833,0.0577 0.71428,0 1.46089,-0.36522 2.85715,-0.95238 4.28572,-1.42857 0.71428,-0.2381 1.40018,-0.59051 2.14286,-0.71429 0.70456,-0.11743 1.46522,0.22588 2.14285,0 0.22588,-0.0753 -0.22587,-0.63899 0,-0.71428 0.67763,-0.22588 1.43829,0.11742 2.14286,0 0.74268,-0.12378 1.39575,-0.6209 2.14286,-0.71429 1.18128,-0.14766 2.38095,0 3.57143,0 0.71428,0 1.43829,0.11743 2.14285,0 0.23766,-0.0396 4.1635,-1.42857 4.28572,-1.42857 0.33672,0 -0.41312,0.5637 -0.71429,0.71429 -0.21296,0.10648 -0.47619,0 -0.71428,0 -0.2381,0 -0.47619,0 -0.71429,0 -0.32168,0 -1.92548,0.10869 -2.14286,0 -0.30117,-0.15059 -0.41311,-0.5637 -0.71428,-0.71429 -0.21296,-0.10648 -0.50133,0.10648 -0.71429,0 -0.30117,-0.15058 -0.40165,-0.58923 -0.71428,-0.71428 -0.91148,-0.36459 -1.92583,-0.40385 -2.85715,-0.71429 -0.50507,-0.16836 -0.91207,-0.58516 -1.42857,-0.71428 -0.92394,-0.23099 -1.95363,0.30117 -2.85714,0 -0.31944,-0.10648 -0.41312,-0.56371 -0.71429,-0.71429 -0.21296,-0.10648 -0.48841,0.0753 -0.71428,0 -0.50508,-0.16836 -0.9235,-0.54593 -1.42857,-0.71429 -0.45176,-0.15058 -1.09186,0.33672 -1.42858,0 -0.16835,-0.16835 0.19811,-0.58221 0,-0.71428 -1.25294,-0.83529 -2.93884,-0.75514 -4.28571,-1.42857 -0.30117,-0.15059 -0.44491,-0.51226 -0.71429,-0.71429 -1.48063,-1.11047 -3.26487,-2.16309 -5,-2.85714 -1.39814,-0.55926 -2.85714,-0.95238 -4.28571,-1.42857 -0.71429,-0.2381 -1.40018,-0.59051 -2.14286,-0.71429 -0.70456,-0.11743 -1.44244,0.14008 -2.14285,0 -0.52206,-0.10441 -0.91207,-0.58516 -1.42858,-0.71428 -1.58889,-0.39723 -1.91379,0.47748 -3.57142,0.71428 -0.94281,0.13469 -1.90477,0 -2.85715,0 -2.61904,0 -5.23809,0 -7.85714,0 -1.19048,0 -2.39715,0.19571 -3.57143,0 -0.74268,-0.12378 -1.41241,-0.53167 -2.14286,-0.71428 -0.23098,-0.0577 -0.47619,0 -0.71428,0 -1.033,0 -4.24572,0.15085 -5,0 -0.52206,-0.10442 -0.90651,-0.60988 -1.42857,-0.71429 -1.16736,-0.23347 -2.4165,0.28873 -3.57143,0 -0.5165,-0.12913 -0.91207,-0.58516 -1.42857,-0.71429 -0.46198,-0.11549 -1.00266,0.21296 -1.42857,0 -0.21296,-0.10648 0.10648,-0.50132 0,-0.71428 -0.10806,-0.21611 -2.64104,-2.74909 -2.85715,-2.85714 -1.14682,-0.57341 -2.82617,-0.38522 -3.57143,-1.42858 -0.83034,-1.16247 0,-2.85714 0,-4.28571"
       id="path14177"
       inkscape:connector-curvature="0" />
  </g>
</svg>
