<?xml version="1.0" encoding="UTF-8" standalone="no"?>
<!-- Created with Inkscape (http://www.inkscape.org/) -->

<svg
   xmlns:dc="http://purl.org/dc/elements/1.1/"
   xmlns:cc="http://creativecommons.org/ns#"
   xmlns:rdf="http://www.w3.org/1999/02/22-rdf-syntax-ns#"
   xmlns:svg="http://www.w3.org/2000/svg"
   xmlns="http://www.w3.org/2000/svg"
   xmlns:xlink="http://www.w3.org/1999/xlink"
   xmlns:sodipodi="http://sodipodi.sourceforge.net/DTD/sodipodi-0.dtd"
   xmlns:inkscape="http://www.inkscape.org/namespaces/inkscape"
   width="333.35034"
   height="345.47217"
   id="svg14239"
   version="1.1"
   inkscape:version="0.48.4 r9939"
   sodipodi:docname="eclaircie_logo.svg">
  <defs
     id="defs14241">
    <linearGradient
       inkscape:collect="always"
       id="linearGradient14376">
      <stop
         style="stop-color:#d3d3d3;stop-opacity:1;"
         offset="0"
         id="stop14378" />
      <stop
         style="stop-color:#d3d3d3;stop-opacity:0;"
         offset="1"
         id="stop14380" />
    </linearGradient>
    <linearGradient
       inkscape:collect="always"
       id="linearGradient14362">
      <stop
         style="stop-color:#d3d3d3;stop-opacity:1;"
         offset="0"
         id="stop14364" />
      <stop
         style="stop-color:#d3d3d3;stop-opacity:0;"
         offset="1"
         id="stop14366" />
    </linearGradient>
    <linearGradient
       inkscape:collect="always"
       xlink:href="#linearGradient14362"
       id="linearGradient14368"
       x1="75.758568"
       y1="410.94861"
       x2="155.56061"
       y2="357.41052"
       gradientUnits="userSpaceOnUse"
       gradientTransform="translate(-9.0899353,-13.668824)" />
    <linearGradient
       inkscape:collect="always"
       xlink:href="#linearGradient14376"
       id="linearGradient14382"
       x1="391.93631"
       y1="415.99936"
       x2="315.1647"
       y2="361.45114"
       gradientUnits="userSpaceOnUse"
       gradientTransform="translate(-9.0899353,-13.668824)" />
  </defs>
  <sodipodi:namedview
     id="base"
     pagecolor="#ffffff"
     bordercolor="#666666"
     borderopacity="1.0"
     inkscape:pageopacity="1"
     inkscape:pageshadow="2"
     inkscape:zoom="0.98994949"
     inkscape:cx="245.78936"
     inkscape:cy="185.39213"
     inkscape:document-units="px"
     inkscape:current-layer="layer1"
     showgrid="false"
     inkscape:window-width="1856"
     inkscape:window-height="1049"
     inkscape:window-x="64"
     inkscape:window-y="0"
     inkscape:window-maximized="1"
     fit-margin-top="0"
     fit-margin-left="0"
     fit-margin-right="0"
     fit-margin-bottom="0" />
  <metadata
     id="metadata14244">
    <rdf:RDF>
      <cc:Work
         rdf:about="">
        <dc:format>image/svg+xml</dc:format>
        <dc:type
           rdf:resource="http://purl.org/dc/dcmitype/StillImage" />
        <dc:title></dc:title>
      </cc:Work>
    </rdf:RDF>
  </metadata>
  <g
     inkscape:label="Calque 1"
     inkscape:groupmode="layer"
     id="layer1"
     transform="translate(-59.597565,-182.22144)">
    <rect
       style="color:#000000;fill:#ffffff;fill-opacity:1;fill-rule:nonzero;stroke:none;stroke-width:1.99999976;marker:none;visibility:visible;display:inline;overflow:visible;enable-background:accumulate"
       id="rect14392"
       width="333.35034"
       height="345.47217"
       x="59.597565"
       y="182.22144" />
    <g
       id="g14288"
       transform="translate(3.4478607,-180)">
      <text
         sodipodi:linespacing="125%"
         id="text14247"
         y="427.07776"
         x="66.670067"
         style="font-size:64px;font-style:normal;font-weight:normal;line-height:125%;letter-spacing:0px;word-spacing:0px;fill:#000000;fill-opacity:1;stroke:none;font-family:Sans"
         xml:space="preserve"><tspan
           y="427.07776"
           x="66.670067"
           id="tspan14249"
           sodipodi:role="line"
           style="font-weight:bold;fill:#00ff00;stroke:#000000"><tspan
   style="fill:#ffd700;stroke:#000000"
   id="tspan14388">é</tspan>Claircie</tspan></text>
    </g>
    <text
       sodipodi:linespacing="125%"
       id="text14284"
       y="514.90759"
       x="69.126579"
       style="font-size:29.5549202px;font-style:normal;font-weight:normal;line-height:125%;letter-spacing:0px;word-spacing:0px;fill:#000000;fill-opacity:1;stroke:none;font-family:Sans"
       xml:space="preserve"><tspan
         y="514.90759"
         x="69.126579"
         id="tspan14286"
         sodipodi:role="line">cloud-less computing</tspan></text>
    <g
       id="g14296"
       transform="translate(-0.19115694,0)">
      <text
         sodipodi:linespacing="125%"
         id="text14292"
         y="468.61414"
         x="69.266281"
         style="font-size:21.27146721px;font-style:normal;font-weight:normal;line-height:125%;letter-spacing:0px;word-spacing:0px;fill:#000000;fill-opacity:1;stroke:none;font-family:Sans"
         xml:space="preserve"><tspan
           y="468.61414"
           x="69.266281"
           id="tspan14294"
           sodipodi:role="line"
           style="font-weight:bold">l'informatique sans nuage</tspan></text>
    </g>
    <rect
       style="color:#000000;fill:#adff2f;fill-opacity:1;fill-rule:nonzero;stroke:none;stroke-width:2;marker:none;visibility:visible;display:inline;overflow:visible;enable-background:accumulate"
       id="rect14300"
       width="315.1676"
       height="6.0609155"
       x="68.690376"
       y="479.60568" />
    <path
       sodipodi:type="arc"
       style="color:#000000;fill:#ffd700;fill-opacity:1;fill-rule:nonzero;stroke:none;stroke-width:2;marker:none;visibility:visible;display:inline;overflow:visible;enable-background:accumulate"
       id="path14302"
       sodipodi:cx="192.93913"
       sodipodi:cy="338.68942"
       sodipodi:rx="43.941635"
       sodipodi:ry="43.941635"
       d="m 236.88077,338.68942 c 0,24.2683 -19.67334,43.94164 -43.94164,43.94164 -24.26829,0 -43.94163,-19.67334 -43.94163,-43.94164 0,-24.26829 19.67334,-43.94163 43.94163,-43.94163 24.2683,0 43.94164,19.67334 43.94164,43.94163 z"
       transform="translate(33.335045,-20.08122)" />
    <path
       style="color:#000000;fill:#adff2f;fill-opacity:1;fill-rule:nonzero;stroke:none;stroke-width:2;marker:none;visibility:visible;display:inline;overflow:visible;enable-background:accumulate"
       d="m 68.690376,413.34189 c 84.852814,-40.01279 228.294484,-41.73377 315.167604,0 l 0,30.32471 -315.167604,0 z"
       id="rect14304"
       inkscape:connector-curvature="0"
       sodipodi:nodetypes="ccccc" />
    <path
       style="fill:url(#linearGradient14368);fill-opacity:1;stroke:none"
       d="m 75.25,347.1875 c -0.251619,0.008 -0.502366,0.0201 -0.75,0.0625 -1.044117,0.1786 -2.021098,0.58701 -3.03125,0.875 -0.9228,0.26309 -1.894155,0.44444 -2.78125,0.78125 l 0,52.4375 c 0.584202,-0.18623 1.146339,-0.40217 1.75,-0.53125 0.326664,-0.0699 0.704586,0.0699 1.03125,0 8.408025,-1.79786 -1.238874,0.0688 5.03125,-1.71875 0.958315,-0.27321 2.124773,0.54643 3.03125,0 0.451754,-0.12879 0.579496,-0.71495 1.03125,-0.84375 0.638877,-0.18214 1.346672,0.1397 2,0 1.460885,-0.31237 2.602678,-1.34271 4.03125,-1.75 0.319438,-0.0911 0.694533,0 1.03125,0 l 2,-0.84375 c 0.319439,-0.0911 0.793155,0.20365 1.03125,0 0.238095,-0.20363 -0.238095,-0.67136 0,-0.875 0.238095,-0.20364 0.680562,0.0911 1,0 0.714286,-0.20364 1.40478,-0.5178 2.03125,-0.875 0.396214,-0.22592 0.663283,-0.55576 1,-0.84375 0.336718,0 0.69883,0.12879 1,0 0.425917,-0.18214 0.605332,-0.69286 1.03125,-0.875 0.602339,-0.25759 1.397662,0.25759 2,0 0.425918,-0.18214 0.605332,-0.69286 1.03125,-0.875 0.30116,-0.12879 0.7619,0.20364 1,0 0.23809,-0.20364 -0.30117,-0.71496 0,-0.84375 0.60234,-0.25759 1.39238,0.18215 2.03125,0 0.45176,-0.1288 0.57408,-0.69287 1,-0.875 0.95238,-0.40729 2.07887,-0.46772 3.03125,-0.875 0.42592,-0.18215 0.60378,-0.61783 1,-0.84375 0.62647,-0.35721 1.35782,-0.58701 2.03125,-0.875 1.34687,-0.57599 2.60268,-1.31147 4.03125,-1.71875 0.31944,-0.0911 0.79316,0.20364 1.03125,0 0.2381,-0.20364 -0.23809,-0.67135 0,-0.875 2.55155,-2.18232 1.16528,-0.31177 3.03125,-0.84375 7.31696,-2.08605 -1.59182,0.22705 3.03125,-1.75 0.30117,-0.12879 0.76191,0.20365 1,0 0.2381,-0.20363 -0.23809,-0.6401 0,-0.84375 0.2381,-0.20364 0.76191,0.20365 1,0 0.2381,-0.20364 -0.15058,-0.61741 0,-0.875 0.21296,-0.36429 0.81829,-0.51071 1.03125,-0.875 0.15058,-0.25757 -0.2381,-0.6401 0,-0.84375 -0.2381,-0.20364 0.15058,-0.61741 0,-0.875 -0.21296,-0.36429 -0.7671,-0.53612 -1.03125,-0.875 -0.41764,-0.53581 -0.58235,-1.18294 -1,-1.71875 -0.61304,-0.78649 -2.58358,-1.82797 -3.03125,-2.59375 -0.69668,-1.19173 1.2335,-0.7636 -1,-1.71875 -0.60234,-0.25758 -1.55506,0.40729 -2.03125,0 -2.09005,-1.78755 3.20402,0.0791 -1,-1.71875 l 1,0 c 0.68409,0 6.60232,0.1312 7.0625,0 0.45176,-0.12879 0.60533,-0.69286 1.03125,-0.875 0.60234,-0.25759 1.36112,0.18214 2,0 0.71429,-0.20364 1.31696,-0.67136 2.03125,-0.875 0.31944,-0.0911 0.68056,0.0911 1,0 0.71429,-0.20364 1.31697,-0.64012 2.03125,-0.84375 0.31944,-0.0911 0.69883,0.12879 1,0 0.42591,-0.18214 0.54825,-0.74621 1,-0.875 0.63888,-0.18214 1.37793,0.1397 2.03125,0 2.92968,-0.62644 1.18294,-0.66485 3.03125,-1.71875 0.62647,-0.35721 1.40478,-0.5178 2.03125,-0.875 0.39621,-0.22593 0.57408,-0.69285 1,-0.875 0.30117,-0.12879 0.69883,0.1288 1,0 2.23351,-0.95514 0.33456,-0.52702 1.03125,-1.71875 2.31153,-3.95408 -0.43898,3.66439 2,-2.59375 0.48784,-1.25172 -1.54548,-3.14624 -2,-4.3125 -0.10648,-0.27321 0.23809,-0.67136 0,-0.875 -2.09001,-1.7876 0.0708,2.75191 -2.03125,-0.84375 -0.15058,-0.25759 0.2381,-0.67135 0,-0.875 -2.09,-1.78759 0.0708,2.72066 -2.03125,-0.875 -0.15059,-0.25759 0.23809,-0.64012 0,-0.84375 -0.2381,-0.20365 -0.68056,0.0911 -1,0 -4.38572,-1.25036 0.68223,-0.875 -5.0625,-0.875 l -4.03125,0 c -0.67344,0 -1.39237,-0.18215 -2.03125,0 -0.71428,0.20364 -1.32657,0.587 -2,0.875 -0.67344,0 -1.37792,-0.13971 -2.03125,0 -0.73044,0.15618 -1.2617,0.71746 -2,0.84375 -0.99054,0.16944 -2.05126,-0.20955 -3.03125,0 -0.46197,0.0988 -0.60533,0.69286 -1.03125,0.875 -0.95238,0.40729 -1.99825,0.65412 -3.03125,0.875 -0.65333,0.1397 -1.39767,-0.25759 -2,0 -0.42592,0.18214 -0.57949,0.71495 -1.03125,0.84375 -0.63887,0.18213 -1.36113,-0.18214 -2,0 -0.45176,0.12879 -0.5795,0.74621 -1.03125,0.875 -1.27776,0.36429 -2.7246,-0.27939 -4.03125,0 -0.73045,0.15619 -1.30081,0.71881 -2.03125,0.875 -0.65333,0.13969 -1.34668,-0.1397 -2,0 -0.730443,0.15618 -1.300807,0.68757 -2.03125,0.84375 -1.753873,0.37502 -4.308627,-0.37501 -6.0625,0 -0.730442,0.15619 -1.300807,0.71882 -2.03125,0.875 -0.653328,0.1397 -1.326565,0 -2,0 l -2.03125,0 -2,0 c -0.336717,0 -0.711812,0.0911 -1.03125,0 -0.714286,-0.20364 -1.269557,-0.71881 -2,-0.875 -0.03377,-0.007 -3.02585,0.004 -3.03125,0 -0.61245,-0.52382 1.741518,-3.64926 2,-4.3125 0.106479,-0.27321 0,-0.587 0,-0.875 l 0,-1.71875 c 0,-0.28799 0.238095,-0.67135 0,-0.875 -0.238095,-0.20363 -0.663282,0 -1,0 l -1,0 c -0.757615,0 -1.526394,-0.0863 -2.28125,-0.0625 z M 124,378.375 c 0.0971,0.0831 0.28254,0.0482 0.46875,0 -0.18695,-0.0485 -0.37122,-0.0834 -0.46875,0 z m 0.46875,0 c 0.26945,0.07 0.53125,0.17003 0.53125,0 0,-0.17049 -0.26106,-0.07 -0.53125,0 z"
       id="path14320"
       inkscape:connector-curvature="0" />
    <path
       id="path14341"
       d="m 376.70003,347.1875 c 0.25162,0.008 0.50237,0.0201 0.75,0.0625 1.04412,0.1786 2.0211,0.58701 3.03125,0.875 0.9228,0.26309 1.89415,0.44444 2.78125,0.78125 l 0,52.4375 c -0.5842,-0.18623 -1.14634,-0.40217 -1.75,-0.53125 -0.32666,-0.0699 -0.70459,0.0699 -1.03125,0 -8.40802,-1.79786 1.23887,0.0688 -5.03125,-1.71875 -0.95832,-0.27321 -2.12477,0.54643 -3.03125,0 -0.45175,-0.12879 -0.5795,-0.71495 -1.03125,-0.84375 -0.63888,-0.18214 -1.34667,0.1397 -2,0 -1.46089,-0.31237 -2.60268,-1.34271 -4.03125,-1.75 -0.31944,-0.0911 -0.69453,0 -1.03125,0 l -2,-0.84375 c -0.31944,-0.0911 -0.79316,0.20365 -1.03125,0 -0.2381,-0.20363 0.23809,-0.67136 0,-0.875 -0.2381,-0.20364 -0.68056,0.0911 -1,0 -0.71429,-0.20364 -1.40478,-0.5178 -2.03125,-0.875 -0.39621,-0.22592 -0.66328,-0.55576 -1,-0.84375 -0.33672,0 -0.69883,0.12879 -1,0 -0.42592,-0.18214 -0.60533,-0.69286 -1.03125,-0.875 -0.60234,-0.25759 -1.39766,0.25759 -2,0 -0.42592,-0.18214 -0.60533,-0.69286 -1.03125,-0.875 -0.30116,-0.12879 -0.7619,0.20364 -1,0 -0.23809,-0.20364 0.30117,-0.71496 0,-0.84375 -0.60234,-0.25759 -1.39238,0.18215 -2.03125,0 -0.45176,-0.1288 -0.57408,-0.69287 -1,-0.875 -0.95238,-0.40729 -2.07887,-0.46772 -3.03125,-0.875 -0.42592,-0.18215 -0.60378,-0.61783 -1,-0.84375 -0.62647,-0.35721 -1.35782,-0.58701 -2.03125,-0.875 -1.34687,-0.57599 -2.60268,-1.31147 -4.03125,-1.71875 -0.31944,-0.0911 -0.79316,0.20364 -1.03125,0 -0.2381,-0.20364 0.23809,-0.67135 0,-0.875 -2.55155,-2.18232 -1.16528,-0.31177 -3.03125,-0.84375 -7.31696,-2.08605 1.59182,0.22705 -3.03125,-1.75 -0.30117,-0.12879 -0.76191,0.20365 -1,0 -0.2381,-0.20363 0.23809,-0.6401 0,-0.84375 -0.2381,-0.20364 -0.76191,0.20365 -1,0 -0.2381,-0.20364 0.15058,-0.61741 0,-0.875 -0.21296,-0.36429 -0.81829,-0.51071 -1.03125,-0.875 -0.15058,-0.25757 0.2381,-0.6401 0,-0.84375 0.2381,-0.20364 -0.15058,-0.61741 0,-0.875 0.21296,-0.36429 0.7671,-0.53612 1.03125,-0.875 0.41764,-0.53581 0.58235,-1.18294 1,-1.71875 0.61304,-0.78649 2.58358,-1.82797 3.03125,-2.59375 0.69668,-1.19173 -1.2335,-0.7636 1,-1.71875 0.60234,-0.25758 1.55506,0.40729 2.03125,0 2.09005,-1.78755 -3.20402,0.0791 1,-1.71875 l -1,0 c -0.68409,0 -6.60232,0.1312 -7.0625,0 -0.45176,-0.12879 -0.60533,-0.69286 -1.03125,-0.875 -0.60234,-0.25759 -1.36112,0.18214 -2,0 -0.71429,-0.20364 -1.31696,-0.67136 -2.03125,-0.875 -0.31944,-0.0911 -0.68056,0.0911 -1,0 -0.71429,-0.20364 -1.31697,-0.64012 -2.03125,-0.84375 -0.31944,-0.0911 -0.69883,0.12879 -1,0 -0.42591,-0.18214 -0.54825,-0.74621 -1,-0.875 -0.63888,-0.18214 -1.37793,0.1397 -2.03125,0 -2.92968,-0.62644 -1.18294,-0.66485 -3.03125,-1.71875 -0.62647,-0.35721 -1.40478,-0.5178 -2.03125,-0.875 -0.39621,-0.22593 -0.57408,-0.69285 -1,-0.875 -0.30117,-0.12879 -0.69883,0.1288 -1,0 -2.23351,-0.95514 -0.33456,-0.52702 -1.03125,-1.71875 -2.31153,-3.95408 0.43898,3.66439 -2,-2.59375 -0.48784,-1.25172 1.54548,-3.14624 2,-4.3125 0.10648,-0.27321 -0.23809,-0.67136 0,-0.875 2.09001,-1.7876 -0.0708,2.75191 2.03125,-0.84375 0.15058,-0.25759 -0.2381,-0.67135 0,-0.875 2.09,-1.78759 -0.0708,2.72066 2.03125,-0.875 0.15059,-0.25759 -0.23809,-0.64012 0,-0.84375 0.2381,-0.20365 0.68056,0.0911 1,0 4.38572,-1.25036 -0.68223,-0.875 5.0625,-0.875 l 4.03125,0 c 0.67344,0 1.39237,-0.18215 2.03125,0 0.71428,0.20364 1.32657,0.587 2,0.875 0.67344,0 1.37792,-0.13971 2.03125,0 0.73044,0.15618 1.2617,0.71746 2,0.84375 0.99054,0.16944 2.05126,-0.20955 3.03125,0 0.46197,0.0988 0.60533,0.69286 1.03125,0.875 0.95238,0.40729 1.99825,0.65412 3.03125,0.875 0.65333,0.1397 1.39767,-0.25759 2,0 0.42592,0.18214 0.57949,0.71495 1.03125,0.84375 0.63887,0.18213 1.36113,-0.18214 2,0 0.45176,0.12879 0.5795,0.74621 1.03125,0.875 1.27776,0.36429 2.7246,-0.27939 4.03125,0 0.73045,0.15619 1.30081,0.71881 2.03125,0.875 0.65333,0.13969 1.34668,-0.1397 2,0 0.73044,0.15618 1.30081,0.68757 2.03125,0.84375 1.75387,0.37502 4.30863,-0.37501 6.0625,0 0.73044,0.15619 1.30081,0.71882 2.03125,0.875 0.65333,0.1397 1.32657,0 2,0 l 2.03125,0 2,0 c 0.33672,0 0.71181,0.0911 1.03125,0 0.71429,-0.20364 1.26956,-0.71881 2,-0.875 0.0338,-0.007 3.02585,0.004 3.03125,0 0.61245,-0.52382 -1.74152,-3.64926 -2,-4.3125 -0.10648,-0.27321 0,-0.587 0,-0.875 l 0,-1.71875 c 0,-0.28799 -0.2381,-0.67135 0,-0.875 0.23809,-0.20363 0.66328,0 1,0 l 1,0 c 0.75761,0 1.52639,-0.0863 2.28125,-0.0625 z m -48.75,31.1875 c -0.0971,0.0831 -0.28254,0.0482 -0.46875,0 0.18695,-0.0485 0.37122,-0.0834 0.46875,0 z m -0.46875,0 c -0.26945,0.07 -0.53125,0.17003 -0.53125,0 0,-0.17049 0.26106,-0.07 0.53125,0 z"
       style="fill:url(#linearGradient14382);fill-opacity:1;stroke:none"
       inkscape:connector-curvature="0" />
  </g>
</svg>
